<mxfile host="app.diagrams.net" agent="Mozilla/5.0 (Windows NT 10.0; Win64; x64) AppleWebKit/537.36 (KHTML, like Gecko) Chrome/127.0.0.0 Safari/537.36" version="24.7.6">
  <diagram name="페이지-1" id="2kMVh4AChs_5C903fz1E">
    <mxGraphModel dx="4495" dy="678" grid="1" gridSize="10" guides="1" tooltips="1" connect="1" arrows="1" fold="1" page="1" pageScale="1" pageWidth="3300" pageHeight="4681" math="0" shadow="0">
      <root>
        <mxCell id="0" />
        <mxCell id="1" parent="0" />
        <mxCell id="kg-7mxeYcSGcEFVd8-3E-1" value="CHAN모델링" style="text;html=1;align=center;verticalAlign=middle;resizable=0;points=[];autosize=1;strokeColor=none;fillColor=none;" parent="1" vertex="1">
          <mxGeometry x="40" y="102" width="90" height="30" as="geometry" />
        </mxCell>
        <mxCell id="kg-7mxeYcSGcEFVd8-3E-2" value="CRAW&#39;S FOOT 모델링" style="text;html=1;align=center;verticalAlign=middle;resizable=0;points=[];autosize=1;strokeColor=none;fillColor=none;" parent="1" vertex="1">
          <mxGeometry x="580" y="102" width="150" height="30" as="geometry" />
        </mxCell>
        <mxCell id="kg-7mxeYcSGcEFVd8-3E-3" value="개념적 설계" style="text;html=1;align=center;verticalAlign=middle;resizable=0;points=[];autosize=1;strokeColor=none;fillColor=none;" parent="1" vertex="1">
          <mxGeometry x="40" y="50" width="90" height="30" as="geometry" />
        </mxCell>
        <mxCell id="kg-7mxeYcSGcEFVd8-3E-4" value="1:1" style="text;html=1;align=center;verticalAlign=middle;resizable=0;points=[];autosize=1;strokeColor=none;fillColor=none;" parent="1" vertex="1">
          <mxGeometry x="40" y="132" width="40" height="30" as="geometry" />
        </mxCell>
        <mxCell id="kg-7mxeYcSGcEFVd8-3E-22" value="" style="edgeStyle=orthogonalEdgeStyle;rounded=0;orthogonalLoop=1;jettySize=auto;html=1;endArrow=none;endFill=0;" parent="1" source="kg-7mxeYcSGcEFVd8-3E-5" target="kg-7mxeYcSGcEFVd8-3E-9" edge="1">
          <mxGeometry relative="1" as="geometry" />
        </mxCell>
        <mxCell id="kg-7mxeYcSGcEFVd8-3E-73" value="" style="edgeStyle=orthogonalEdgeStyle;rounded=0;orthogonalLoop=1;jettySize=auto;html=1;entryX=0.471;entryY=1.095;entryDx=0;entryDy=0;entryPerimeter=0;endArrow=none;endFill=0;" parent="1" source="kg-7mxeYcSGcEFVd8-3E-5" target="kg-7mxeYcSGcEFVd8-3E-26" edge="1">
          <mxGeometry relative="1" as="geometry">
            <Array as="points">
              <mxPoint x="194" y="210" />
            </Array>
          </mxGeometry>
        </mxCell>
        <mxCell id="kg-7mxeYcSGcEFVd8-3E-5" value="남자" style="whiteSpace=wrap;html=1;align=center;" parent="1" vertex="1">
          <mxGeometry x="20" y="190" width="100" height="40" as="geometry" />
        </mxCell>
        <mxCell id="kg-7mxeYcSGcEFVd8-3E-6" value="여자" style="whiteSpace=wrap;html=1;align=center;" parent="1" vertex="1">
          <mxGeometry x="365" y="190" width="100" height="40" as="geometry" />
        </mxCell>
        <mxCell id="kg-7mxeYcSGcEFVd8-3E-25" value="" style="edgeStyle=orthogonalEdgeStyle;rounded=0;orthogonalLoop=1;jettySize=auto;html=1;endArrow=none;endFill=0;" parent="1" source="kg-7mxeYcSGcEFVd8-3E-7" target="kg-7mxeYcSGcEFVd8-3E-5" edge="1">
          <mxGeometry relative="1" as="geometry">
            <Array as="points">
              <mxPoint y="250" />
              <mxPoint x="70" y="250" />
            </Array>
          </mxGeometry>
        </mxCell>
        <mxCell id="kg-7mxeYcSGcEFVd8-3E-7" value="&lt;span style=&quot;border-bottom: 1px dotted&quot;&gt;&lt;u&gt;아이디&lt;/u&gt;&lt;/span&gt;&lt;div&gt;&lt;span style=&quot;border-bottom: 1px dotted&quot;&gt;&lt;u&gt;(PK)&lt;/u&gt;&lt;/span&gt;&lt;/div&gt;" style="ellipse;whiteSpace=wrap;html=1;align=center;" parent="1" vertex="1">
          <mxGeometry x="-20" y="260" width="40" height="40" as="geometry" />
        </mxCell>
        <mxCell id="kg-7mxeYcSGcEFVd8-3E-23" value="" style="edgeStyle=orthogonalEdgeStyle;rounded=0;orthogonalLoop=1;jettySize=auto;html=1;endArrow=none;endFill=0;" parent="1" source="kg-7mxeYcSGcEFVd8-3E-8" target="kg-7mxeYcSGcEFVd8-3E-5" edge="1">
          <mxGeometry relative="1" as="geometry">
            <Array as="points">
              <mxPoint x="50" y="250" />
              <mxPoint x="70" y="250" />
            </Array>
          </mxGeometry>
        </mxCell>
        <mxCell id="kg-7mxeYcSGcEFVd8-3E-8" value="이름" style="ellipse;whiteSpace=wrap;html=1;align=center;" parent="1" vertex="1">
          <mxGeometry x="30" y="260" width="40" height="40" as="geometry" />
        </mxCell>
        <mxCell id="kg-7mxeYcSGcEFVd8-3E-9" value="나이" style="ellipse;whiteSpace=wrap;html=1;align=center;" parent="1" vertex="1">
          <mxGeometry x="80" y="260" width="40" height="40" as="geometry" />
        </mxCell>
        <mxCell id="kg-7mxeYcSGcEFVd8-3E-24" value="" style="edgeStyle=orthogonalEdgeStyle;rounded=0;orthogonalLoop=1;jettySize=auto;html=1;endArrow=none;endFill=0;" parent="1" target="kg-7mxeYcSGcEFVd8-3E-5" edge="1">
          <mxGeometry relative="1" as="geometry">
            <mxPoint x="150" y="260" as="sourcePoint" />
            <Array as="points">
              <mxPoint x="150" y="250" />
              <mxPoint x="70" y="250" />
            </Array>
          </mxGeometry>
        </mxCell>
        <mxCell id="kg-7mxeYcSGcEFVd8-3E-10" value="직업" style="ellipse;whiteSpace=wrap;html=1;align=center;" parent="1" vertex="1">
          <mxGeometry x="130" y="260" width="40" height="40" as="geometry" />
        </mxCell>
        <mxCell id="kg-7mxeYcSGcEFVd8-3E-28" value="" style="edgeStyle=orthogonalEdgeStyle;rounded=0;orthogonalLoop=1;jettySize=auto;html=1;endArrow=none;endFill=0;" parent="1" target="kg-7mxeYcSGcEFVd8-3E-6" edge="1">
          <mxGeometry relative="1" as="geometry">
            <mxPoint x="340" y="260" as="sourcePoint" />
            <Array as="points">
              <mxPoint x="340" y="250" />
              <mxPoint x="415" y="250" />
            </Array>
          </mxGeometry>
        </mxCell>
        <mxCell id="kg-7mxeYcSGcEFVd8-3E-15" value="&lt;span style=&quot;border-bottom: 1px dotted&quot;&gt;&lt;u&gt;아이디&lt;br&gt;(PK)&lt;/u&gt;&lt;/span&gt;" style="ellipse;whiteSpace=wrap;html=1;align=center;" parent="1" vertex="1">
          <mxGeometry x="320" y="260" width="40" height="40" as="geometry" />
        </mxCell>
        <mxCell id="kg-7mxeYcSGcEFVd8-3E-29" value="" style="edgeStyle=orthogonalEdgeStyle;rounded=0;orthogonalLoop=1;jettySize=auto;html=1;endArrow=none;endFill=0;" parent="1" source="kg-7mxeYcSGcEFVd8-3E-16" target="kg-7mxeYcSGcEFVd8-3E-6" edge="1">
          <mxGeometry relative="1" as="geometry">
            <Array as="points">
              <mxPoint x="395" y="250" />
              <mxPoint x="415" y="250" />
            </Array>
          </mxGeometry>
        </mxCell>
        <mxCell id="kg-7mxeYcSGcEFVd8-3E-16" value="이름" style="ellipse;whiteSpace=wrap;html=1;align=center;" parent="1" vertex="1">
          <mxGeometry x="375" y="260" width="40" height="40" as="geometry" />
        </mxCell>
        <mxCell id="kg-7mxeYcSGcEFVd8-3E-30" value="" style="edgeStyle=orthogonalEdgeStyle;rounded=0;orthogonalLoop=1;jettySize=auto;html=1;endArrow=none;endFill=0;" parent="1" source="kg-7mxeYcSGcEFVd8-3E-17" target="kg-7mxeYcSGcEFVd8-3E-6" edge="1">
          <mxGeometry relative="1" as="geometry">
            <Array as="points">
              <mxPoint x="445" y="250" />
              <mxPoint x="415" y="250" />
            </Array>
          </mxGeometry>
        </mxCell>
        <mxCell id="kg-7mxeYcSGcEFVd8-3E-17" value="나이" style="ellipse;whiteSpace=wrap;html=1;align=center;" parent="1" vertex="1">
          <mxGeometry x="425" y="260" width="40" height="40" as="geometry" />
        </mxCell>
        <mxCell id="kg-7mxeYcSGcEFVd8-3E-31" value="" style="edgeStyle=orthogonalEdgeStyle;rounded=0;orthogonalLoop=1;jettySize=auto;html=1;endArrow=none;endFill=0;" parent="1" source="kg-7mxeYcSGcEFVd8-3E-18" target="kg-7mxeYcSGcEFVd8-3E-6" edge="1">
          <mxGeometry relative="1" as="geometry">
            <Array as="points">
              <mxPoint x="495" y="250" />
              <mxPoint x="415" y="250" />
            </Array>
          </mxGeometry>
        </mxCell>
        <mxCell id="kg-7mxeYcSGcEFVd8-3E-18" value="직업" style="ellipse;whiteSpace=wrap;html=1;align=center;" parent="1" vertex="1">
          <mxGeometry x="475" y="260" width="40" height="40" as="geometry" />
        </mxCell>
        <mxCell id="kg-7mxeYcSGcEFVd8-3E-21" value="" style="edgeStyle=orthogonalEdgeStyle;rounded=0;orthogonalLoop=1;jettySize=auto;html=1;endArrow=none;endFill=0;" parent="1" source="kg-7mxeYcSGcEFVd8-3E-19" target="kg-7mxeYcSGcEFVd8-3E-6" edge="1">
          <mxGeometry relative="1" as="geometry" />
        </mxCell>
        <mxCell id="kg-7mxeYcSGcEFVd8-3E-19" value="결혼" style="shape=rhombus;perimeter=rhombusPerimeter;whiteSpace=wrap;html=1;align=center;" parent="1" vertex="1">
          <mxGeometry x="195" y="180" width="90" height="60" as="geometry" />
        </mxCell>
        <mxCell id="kg-7mxeYcSGcEFVd8-3E-26" value="1" style="text;html=1;align=center;verticalAlign=middle;resizable=0;points=[];autosize=1;strokeColor=none;fillColor=none;" parent="1" vertex="1">
          <mxGeometry x="180" y="180" width="30" height="30" as="geometry" />
        </mxCell>
        <mxCell id="kg-7mxeYcSGcEFVd8-3E-27" value="1" style="text;html=1;align=center;verticalAlign=middle;resizable=0;points=[];autosize=1;strokeColor=none;fillColor=none;" parent="1" vertex="1">
          <mxGeometry x="270" y="180" width="30" height="30" as="geometry" />
        </mxCell>
        <mxCell id="kg-7mxeYcSGcEFVd8-3E-96" value="" style="edgeStyle=orthogonalEdgeStyle;rounded=0;orthogonalLoop=1;jettySize=auto;html=1;endArrow=ERone;endFill=0;startArrow=ERone;startFill=0;" parent="1" source="kg-7mxeYcSGcEFVd8-3E-32" target="kg-7mxeYcSGcEFVd8-3E-83" edge="1">
          <mxGeometry relative="1" as="geometry" />
        </mxCell>
        <mxCell id="kg-7mxeYcSGcEFVd8-3E-32" value="남자" style="shape=table;startSize=30;container=1;collapsible=1;childLayout=tableLayout;fixedRows=1;rowLines=0;fontStyle=1;align=center;resizeLast=1;html=1;" parent="1" vertex="1">
          <mxGeometry x="590" y="170" width="140" height="150" as="geometry" />
        </mxCell>
        <mxCell id="kg-7mxeYcSGcEFVd8-3E-33" value="" style="shape=tableRow;horizontal=0;startSize=0;swimlaneHead=0;swimlaneBody=0;fillColor=none;collapsible=0;dropTarget=0;points=[[0,0.5],[1,0.5]];portConstraint=eastwest;top=0;left=0;right=0;bottom=1;" parent="kg-7mxeYcSGcEFVd8-3E-32" vertex="1">
          <mxGeometry y="30" width="140" height="30" as="geometry" />
        </mxCell>
        <mxCell id="kg-7mxeYcSGcEFVd8-3E-34" value="PK" style="shape=partialRectangle;connectable=0;fillColor=none;top=0;left=0;bottom=0;right=0;fontStyle=1;overflow=hidden;whiteSpace=wrap;html=1;" parent="kg-7mxeYcSGcEFVd8-3E-33" vertex="1">
          <mxGeometry width="30" height="30" as="geometry">
            <mxRectangle width="30" height="30" as="alternateBounds" />
          </mxGeometry>
        </mxCell>
        <mxCell id="kg-7mxeYcSGcEFVd8-3E-35" value="아이디" style="shape=partialRectangle;connectable=0;fillColor=none;top=0;left=0;bottom=0;right=0;align=left;spacingLeft=6;fontStyle=5;overflow=hidden;whiteSpace=wrap;html=1;" parent="kg-7mxeYcSGcEFVd8-3E-33" vertex="1">
          <mxGeometry x="30" width="110" height="30" as="geometry">
            <mxRectangle width="110" height="30" as="alternateBounds" />
          </mxGeometry>
        </mxCell>
        <mxCell id="kg-7mxeYcSGcEFVd8-3E-36" value="" style="shape=tableRow;horizontal=0;startSize=0;swimlaneHead=0;swimlaneBody=0;fillColor=none;collapsible=0;dropTarget=0;points=[[0,0.5],[1,0.5]];portConstraint=eastwest;top=0;left=0;right=0;bottom=0;" parent="kg-7mxeYcSGcEFVd8-3E-32" vertex="1">
          <mxGeometry y="60" width="140" height="30" as="geometry" />
        </mxCell>
        <mxCell id="kg-7mxeYcSGcEFVd8-3E-37" value="" style="shape=partialRectangle;connectable=0;fillColor=none;top=0;left=0;bottom=0;right=0;editable=1;overflow=hidden;whiteSpace=wrap;html=1;" parent="kg-7mxeYcSGcEFVd8-3E-36" vertex="1">
          <mxGeometry width="30" height="30" as="geometry">
            <mxRectangle width="30" height="30" as="alternateBounds" />
          </mxGeometry>
        </mxCell>
        <mxCell id="kg-7mxeYcSGcEFVd8-3E-38" value="이름" style="shape=partialRectangle;connectable=0;fillColor=none;top=0;left=0;bottom=0;right=0;align=left;spacingLeft=6;overflow=hidden;whiteSpace=wrap;html=1;" parent="kg-7mxeYcSGcEFVd8-3E-36" vertex="1">
          <mxGeometry x="30" width="110" height="30" as="geometry">
            <mxRectangle width="110" height="30" as="alternateBounds" />
          </mxGeometry>
        </mxCell>
        <mxCell id="kg-7mxeYcSGcEFVd8-3E-39" value="" style="shape=tableRow;horizontal=0;startSize=0;swimlaneHead=0;swimlaneBody=0;fillColor=none;collapsible=0;dropTarget=0;points=[[0,0.5],[1,0.5]];portConstraint=eastwest;top=0;left=0;right=0;bottom=0;" parent="kg-7mxeYcSGcEFVd8-3E-32" vertex="1">
          <mxGeometry y="90" width="140" height="30" as="geometry" />
        </mxCell>
        <mxCell id="kg-7mxeYcSGcEFVd8-3E-40" value="" style="shape=partialRectangle;connectable=0;fillColor=none;top=0;left=0;bottom=0;right=0;editable=1;overflow=hidden;whiteSpace=wrap;html=1;" parent="kg-7mxeYcSGcEFVd8-3E-39" vertex="1">
          <mxGeometry width="30" height="30" as="geometry">
            <mxRectangle width="30" height="30" as="alternateBounds" />
          </mxGeometry>
        </mxCell>
        <mxCell id="kg-7mxeYcSGcEFVd8-3E-41" value="나이" style="shape=partialRectangle;connectable=0;fillColor=none;top=0;left=0;bottom=0;right=0;align=left;spacingLeft=6;overflow=hidden;whiteSpace=wrap;html=1;" parent="kg-7mxeYcSGcEFVd8-3E-39" vertex="1">
          <mxGeometry x="30" width="110" height="30" as="geometry">
            <mxRectangle width="110" height="30" as="alternateBounds" />
          </mxGeometry>
        </mxCell>
        <mxCell id="kg-7mxeYcSGcEFVd8-3E-42" value="" style="shape=tableRow;horizontal=0;startSize=0;swimlaneHead=0;swimlaneBody=0;fillColor=none;collapsible=0;dropTarget=0;points=[[0,0.5],[1,0.5]];portConstraint=eastwest;top=0;left=0;right=0;bottom=0;" parent="kg-7mxeYcSGcEFVd8-3E-32" vertex="1">
          <mxGeometry y="120" width="140" height="30" as="geometry" />
        </mxCell>
        <mxCell id="kg-7mxeYcSGcEFVd8-3E-43" value="" style="shape=partialRectangle;connectable=0;fillColor=none;top=0;left=0;bottom=0;right=0;editable=1;overflow=hidden;whiteSpace=wrap;html=1;" parent="kg-7mxeYcSGcEFVd8-3E-42" vertex="1">
          <mxGeometry width="30" height="30" as="geometry">
            <mxRectangle width="30" height="30" as="alternateBounds" />
          </mxGeometry>
        </mxCell>
        <mxCell id="kg-7mxeYcSGcEFVd8-3E-44" value="직업" style="shape=partialRectangle;connectable=0;fillColor=none;top=0;left=0;bottom=0;right=0;align=left;spacingLeft=6;overflow=hidden;whiteSpace=wrap;html=1;" parent="kg-7mxeYcSGcEFVd8-3E-42" vertex="1">
          <mxGeometry x="30" width="110" height="30" as="geometry">
            <mxRectangle width="110" height="30" as="alternateBounds" />
          </mxGeometry>
        </mxCell>
        <mxCell id="kg-7mxeYcSGcEFVd8-3E-58" value="여자" style="shape=table;startSize=30;container=1;collapsible=1;childLayout=tableLayout;fixedRows=1;rowLines=0;fontStyle=1;align=center;resizeLast=1;html=1;" parent="1" vertex="1">
          <mxGeometry x="1030" y="170" width="140" height="150" as="geometry" />
        </mxCell>
        <mxCell id="kg-7mxeYcSGcEFVd8-3E-59" value="" style="shape=tableRow;horizontal=0;startSize=0;swimlaneHead=0;swimlaneBody=0;fillColor=none;collapsible=0;dropTarget=0;points=[[0,0.5],[1,0.5]];portConstraint=eastwest;top=0;left=0;right=0;bottom=1;" parent="kg-7mxeYcSGcEFVd8-3E-58" vertex="1">
          <mxGeometry y="30" width="140" height="30" as="geometry" />
        </mxCell>
        <mxCell id="kg-7mxeYcSGcEFVd8-3E-60" value="PK" style="shape=partialRectangle;connectable=0;fillColor=none;top=0;left=0;bottom=0;right=0;fontStyle=1;overflow=hidden;whiteSpace=wrap;html=1;" parent="kg-7mxeYcSGcEFVd8-3E-59" vertex="1">
          <mxGeometry width="30" height="30" as="geometry">
            <mxRectangle width="30" height="30" as="alternateBounds" />
          </mxGeometry>
        </mxCell>
        <mxCell id="kg-7mxeYcSGcEFVd8-3E-61" value="아이디" style="shape=partialRectangle;connectable=0;fillColor=none;top=0;left=0;bottom=0;right=0;align=left;spacingLeft=6;fontStyle=5;overflow=hidden;whiteSpace=wrap;html=1;" parent="kg-7mxeYcSGcEFVd8-3E-59" vertex="1">
          <mxGeometry x="30" width="110" height="30" as="geometry">
            <mxRectangle width="110" height="30" as="alternateBounds" />
          </mxGeometry>
        </mxCell>
        <mxCell id="kg-7mxeYcSGcEFVd8-3E-62" value="" style="shape=tableRow;horizontal=0;startSize=0;swimlaneHead=0;swimlaneBody=0;fillColor=none;collapsible=0;dropTarget=0;points=[[0,0.5],[1,0.5]];portConstraint=eastwest;top=0;left=0;right=0;bottom=0;" parent="kg-7mxeYcSGcEFVd8-3E-58" vertex="1">
          <mxGeometry y="60" width="140" height="30" as="geometry" />
        </mxCell>
        <mxCell id="kg-7mxeYcSGcEFVd8-3E-63" value="" style="shape=partialRectangle;connectable=0;fillColor=none;top=0;left=0;bottom=0;right=0;editable=1;overflow=hidden;whiteSpace=wrap;html=1;" parent="kg-7mxeYcSGcEFVd8-3E-62" vertex="1">
          <mxGeometry width="30" height="30" as="geometry">
            <mxRectangle width="30" height="30" as="alternateBounds" />
          </mxGeometry>
        </mxCell>
        <mxCell id="kg-7mxeYcSGcEFVd8-3E-64" value="이름" style="shape=partialRectangle;connectable=0;fillColor=none;top=0;left=0;bottom=0;right=0;align=left;spacingLeft=6;overflow=hidden;whiteSpace=wrap;html=1;" parent="kg-7mxeYcSGcEFVd8-3E-62" vertex="1">
          <mxGeometry x="30" width="110" height="30" as="geometry">
            <mxRectangle width="110" height="30" as="alternateBounds" />
          </mxGeometry>
        </mxCell>
        <mxCell id="kg-7mxeYcSGcEFVd8-3E-65" value="" style="shape=tableRow;horizontal=0;startSize=0;swimlaneHead=0;swimlaneBody=0;fillColor=none;collapsible=0;dropTarget=0;points=[[0,0.5],[1,0.5]];portConstraint=eastwest;top=0;left=0;right=0;bottom=0;" parent="kg-7mxeYcSGcEFVd8-3E-58" vertex="1">
          <mxGeometry y="90" width="140" height="30" as="geometry" />
        </mxCell>
        <mxCell id="kg-7mxeYcSGcEFVd8-3E-66" value="" style="shape=partialRectangle;connectable=0;fillColor=none;top=0;left=0;bottom=0;right=0;editable=1;overflow=hidden;whiteSpace=wrap;html=1;" parent="kg-7mxeYcSGcEFVd8-3E-65" vertex="1">
          <mxGeometry width="30" height="30" as="geometry">
            <mxRectangle width="30" height="30" as="alternateBounds" />
          </mxGeometry>
        </mxCell>
        <mxCell id="kg-7mxeYcSGcEFVd8-3E-67" value="나이" style="shape=partialRectangle;connectable=0;fillColor=none;top=0;left=0;bottom=0;right=0;align=left;spacingLeft=6;overflow=hidden;whiteSpace=wrap;html=1;" parent="kg-7mxeYcSGcEFVd8-3E-65" vertex="1">
          <mxGeometry x="30" width="110" height="30" as="geometry">
            <mxRectangle width="110" height="30" as="alternateBounds" />
          </mxGeometry>
        </mxCell>
        <mxCell id="kg-7mxeYcSGcEFVd8-3E-68" value="" style="shape=tableRow;horizontal=0;startSize=0;swimlaneHead=0;swimlaneBody=0;fillColor=none;collapsible=0;dropTarget=0;points=[[0,0.5],[1,0.5]];portConstraint=eastwest;top=0;left=0;right=0;bottom=0;" parent="kg-7mxeYcSGcEFVd8-3E-58" vertex="1">
          <mxGeometry y="120" width="140" height="30" as="geometry" />
        </mxCell>
        <mxCell id="kg-7mxeYcSGcEFVd8-3E-69" value="" style="shape=partialRectangle;connectable=0;fillColor=none;top=0;left=0;bottom=0;right=0;editable=1;overflow=hidden;whiteSpace=wrap;html=1;" parent="kg-7mxeYcSGcEFVd8-3E-68" vertex="1">
          <mxGeometry width="30" height="30" as="geometry">
            <mxRectangle width="30" height="30" as="alternateBounds" />
          </mxGeometry>
        </mxCell>
        <mxCell id="kg-7mxeYcSGcEFVd8-3E-70" value="직업" style="shape=partialRectangle;connectable=0;fillColor=none;top=0;left=0;bottom=0;right=0;align=left;spacingLeft=6;overflow=hidden;whiteSpace=wrap;html=1;" parent="kg-7mxeYcSGcEFVd8-3E-68" vertex="1">
          <mxGeometry x="30" width="110" height="30" as="geometry">
            <mxRectangle width="110" height="30" as="alternateBounds" />
          </mxGeometry>
        </mxCell>
        <mxCell id="kg-7mxeYcSGcEFVd8-3E-76" value="남ID&lt;div&gt;(FK)&lt;/div&gt;" style="ellipse;whiteSpace=wrap;html=1;align=center;" parent="1" vertex="1">
          <mxGeometry x="180" y="260" width="40" height="40" as="geometry" />
        </mxCell>
        <mxCell id="kg-7mxeYcSGcEFVd8-3E-77" value="여ID" style="ellipse;whiteSpace=wrap;html=1;align=center;" parent="1" vertex="1">
          <mxGeometry x="220" y="260" width="40" height="40" as="geometry" />
        </mxCell>
        <mxCell id="kg-7mxeYcSGcEFVd8-3E-78" value="날짜" style="ellipse;whiteSpace=wrap;html=1;align=center;" parent="1" vertex="1">
          <mxGeometry x="260" y="260" width="40" height="40" as="geometry" />
        </mxCell>
        <mxCell id="kg-7mxeYcSGcEFVd8-3E-80" value="" style="endArrow=none;html=1;rounded=0;exitX=0.5;exitY=0;exitDx=0;exitDy=0;" parent="1" source="kg-7mxeYcSGcEFVd8-3E-76" edge="1">
          <mxGeometry width="50" height="50" relative="1" as="geometry">
            <mxPoint x="190" y="290" as="sourcePoint" />
            <mxPoint x="240" y="240" as="targetPoint" />
          </mxGeometry>
        </mxCell>
        <mxCell id="kg-7mxeYcSGcEFVd8-3E-81" value="" style="endArrow=none;html=1;rounded=0;exitX=0.5;exitY=0;exitDx=0;exitDy=0;" parent="1" source="kg-7mxeYcSGcEFVd8-3E-77" edge="1">
          <mxGeometry width="50" height="50" relative="1" as="geometry">
            <mxPoint x="210" y="270" as="sourcePoint" />
            <mxPoint x="240" y="240" as="targetPoint" />
          </mxGeometry>
        </mxCell>
        <mxCell id="kg-7mxeYcSGcEFVd8-3E-82" value="" style="endArrow=none;html=1;rounded=0;exitX=0.368;exitY=-0.007;exitDx=0;exitDy=0;exitPerimeter=0;" parent="1" source="kg-7mxeYcSGcEFVd8-3E-78" edge="1">
          <mxGeometry width="50" height="50" relative="1" as="geometry">
            <mxPoint x="250" y="270" as="sourcePoint" />
            <mxPoint x="240" y="240" as="targetPoint" />
          </mxGeometry>
        </mxCell>
        <mxCell id="kg-7mxeYcSGcEFVd8-3E-83" value="결혼" style="shape=table;startSize=30;container=1;collapsible=1;childLayout=tableLayout;fixedRows=1;rowLines=0;fontStyle=1;align=center;resizeLast=1;html=1;" parent="1" vertex="1">
          <mxGeometry x="810" y="155" width="140" height="180" as="geometry" />
        </mxCell>
        <mxCell id="kg-7mxeYcSGcEFVd8-3E-84" value="" style="shape=tableRow;horizontal=0;startSize=0;swimlaneHead=0;swimlaneBody=0;fillColor=none;collapsible=0;dropTarget=0;points=[[0,0.5],[1,0.5]];portConstraint=eastwest;top=0;left=0;right=0;bottom=1;" parent="kg-7mxeYcSGcEFVd8-3E-83" vertex="1">
          <mxGeometry y="30" width="140" height="30" as="geometry" />
        </mxCell>
        <mxCell id="kg-7mxeYcSGcEFVd8-3E-85" value="PK" style="shape=partialRectangle;connectable=0;fillColor=none;top=0;left=0;bottom=0;right=0;fontStyle=1;overflow=hidden;whiteSpace=wrap;html=1;" parent="kg-7mxeYcSGcEFVd8-3E-84" vertex="1">
          <mxGeometry width="30" height="30" as="geometry">
            <mxRectangle width="30" height="30" as="alternateBounds" />
          </mxGeometry>
        </mxCell>
        <mxCell id="kg-7mxeYcSGcEFVd8-3E-86" value="ID" style="shape=partialRectangle;connectable=0;fillColor=none;top=0;left=0;bottom=0;right=0;align=left;spacingLeft=6;fontStyle=1;overflow=hidden;whiteSpace=wrap;html=1;" parent="kg-7mxeYcSGcEFVd8-3E-84" vertex="1">
          <mxGeometry x="30" width="110" height="30" as="geometry">
            <mxRectangle width="110" height="30" as="alternateBounds" />
          </mxGeometry>
        </mxCell>
        <mxCell id="kg-7mxeYcSGcEFVd8-3E-101" value="" style="shape=tableRow;horizontal=0;startSize=0;swimlaneHead=0;swimlaneBody=0;fillColor=none;collapsible=0;dropTarget=0;points=[[0,0.5],[1,0.5]];portConstraint=eastwest;top=0;left=0;right=0;bottom=1;" parent="kg-7mxeYcSGcEFVd8-3E-83" vertex="1">
          <mxGeometry y="60" width="140" height="30" as="geometry" />
        </mxCell>
        <mxCell id="kg-7mxeYcSGcEFVd8-3E-102" value="FK" style="shape=partialRectangle;connectable=0;fillColor=none;top=0;left=0;bottom=0;right=0;fontStyle=1;overflow=hidden;whiteSpace=wrap;html=1;" parent="kg-7mxeYcSGcEFVd8-3E-101" vertex="1">
          <mxGeometry width="30" height="30" as="geometry">
            <mxRectangle width="30" height="30" as="alternateBounds" />
          </mxGeometry>
        </mxCell>
        <mxCell id="kg-7mxeYcSGcEFVd8-3E-103" value="남자아이디" style="shape=partialRectangle;connectable=0;fillColor=none;top=0;left=0;bottom=0;right=0;align=left;spacingLeft=6;fontStyle=1;overflow=hidden;whiteSpace=wrap;html=1;" parent="kg-7mxeYcSGcEFVd8-3E-101" vertex="1">
          <mxGeometry x="30" width="110" height="30" as="geometry">
            <mxRectangle width="110" height="30" as="alternateBounds" />
          </mxGeometry>
        </mxCell>
        <mxCell id="kg-7mxeYcSGcEFVd8-3E-98" value="" style="shape=tableRow;horizontal=0;startSize=0;swimlaneHead=0;swimlaneBody=0;fillColor=none;collapsible=0;dropTarget=0;points=[[0,0.5],[1,0.5]];portConstraint=eastwest;top=0;left=0;right=0;bottom=1;" parent="kg-7mxeYcSGcEFVd8-3E-83" vertex="1">
          <mxGeometry y="90" width="140" height="30" as="geometry" />
        </mxCell>
        <mxCell id="kg-7mxeYcSGcEFVd8-3E-99" value="FK" style="shape=partialRectangle;connectable=0;fillColor=none;top=0;left=0;bottom=0;right=0;fontStyle=1;overflow=hidden;whiteSpace=wrap;html=1;" parent="kg-7mxeYcSGcEFVd8-3E-98" vertex="1">
          <mxGeometry width="30" height="30" as="geometry">
            <mxRectangle width="30" height="30" as="alternateBounds" />
          </mxGeometry>
        </mxCell>
        <mxCell id="kg-7mxeYcSGcEFVd8-3E-100" value="여자아이디" style="shape=partialRectangle;connectable=0;fillColor=none;top=0;left=0;bottom=0;right=0;align=left;spacingLeft=6;fontStyle=1;overflow=hidden;whiteSpace=wrap;html=1;" parent="kg-7mxeYcSGcEFVd8-3E-98" vertex="1">
          <mxGeometry x="30" width="110" height="30" as="geometry">
            <mxRectangle width="110" height="30" as="alternateBounds" />
          </mxGeometry>
        </mxCell>
        <mxCell id="kg-7mxeYcSGcEFVd8-3E-87" value="" style="shape=tableRow;horizontal=0;startSize=0;swimlaneHead=0;swimlaneBody=0;fillColor=none;collapsible=0;dropTarget=0;points=[[0,0.5],[1,0.5]];portConstraint=eastwest;top=0;left=0;right=0;bottom=0;" parent="kg-7mxeYcSGcEFVd8-3E-83" vertex="1">
          <mxGeometry y="120" width="140" height="30" as="geometry" />
        </mxCell>
        <mxCell id="kg-7mxeYcSGcEFVd8-3E-88" value="" style="shape=partialRectangle;connectable=0;fillColor=none;top=0;left=0;bottom=0;right=0;editable=1;overflow=hidden;whiteSpace=wrap;html=1;" parent="kg-7mxeYcSGcEFVd8-3E-87" vertex="1">
          <mxGeometry width="30" height="30" as="geometry">
            <mxRectangle width="30" height="30" as="alternateBounds" />
          </mxGeometry>
        </mxCell>
        <mxCell id="kg-7mxeYcSGcEFVd8-3E-89" value="결혼날짜" style="shape=partialRectangle;connectable=0;fillColor=none;top=0;left=0;bottom=0;right=0;align=left;spacingLeft=6;overflow=hidden;whiteSpace=wrap;html=1;" parent="kg-7mxeYcSGcEFVd8-3E-87" vertex="1">
          <mxGeometry x="30" width="110" height="30" as="geometry">
            <mxRectangle width="110" height="30" as="alternateBounds" />
          </mxGeometry>
        </mxCell>
        <mxCell id="kg-7mxeYcSGcEFVd8-3E-90" value="" style="shape=tableRow;horizontal=0;startSize=0;swimlaneHead=0;swimlaneBody=0;fillColor=none;collapsible=0;dropTarget=0;points=[[0,0.5],[1,0.5]];portConstraint=eastwest;top=0;left=0;right=0;bottom=0;" parent="kg-7mxeYcSGcEFVd8-3E-83" vertex="1">
          <mxGeometry y="150" width="140" height="30" as="geometry" />
        </mxCell>
        <mxCell id="kg-7mxeYcSGcEFVd8-3E-91" value="" style="shape=partialRectangle;connectable=0;fillColor=none;top=0;left=0;bottom=0;right=0;editable=1;overflow=hidden;whiteSpace=wrap;html=1;" parent="kg-7mxeYcSGcEFVd8-3E-90" vertex="1">
          <mxGeometry width="30" height="30" as="geometry">
            <mxRectangle width="30" height="30" as="alternateBounds" />
          </mxGeometry>
        </mxCell>
        <mxCell id="kg-7mxeYcSGcEFVd8-3E-92" value="식장위치" style="shape=partialRectangle;connectable=0;fillColor=none;top=0;left=0;bottom=0;right=0;align=left;spacingLeft=6;overflow=hidden;whiteSpace=wrap;html=1;" parent="kg-7mxeYcSGcEFVd8-3E-90" vertex="1">
          <mxGeometry x="30" width="110" height="30" as="geometry">
            <mxRectangle width="110" height="30" as="alternateBounds" />
          </mxGeometry>
        </mxCell>
        <mxCell id="kg-7mxeYcSGcEFVd8-3E-97" value="" style="edgeStyle=orthogonalEdgeStyle;rounded=0;orthogonalLoop=1;jettySize=auto;html=1;endArrow=ERone;endFill=0;startArrow=ERone;startFill=0;" parent="1" edge="1">
          <mxGeometry relative="1" as="geometry">
            <mxPoint x="950" y="244.71" as="sourcePoint" />
            <mxPoint x="1030" y="244.71" as="targetPoint" />
          </mxGeometry>
        </mxCell>
        <mxCell id="kg-7mxeYcSGcEFVd8-3E-104" value="1:N" style="text;html=1;align=center;verticalAlign=middle;resizable=0;points=[];autosize=1;strokeColor=none;fillColor=none;" parent="1" vertex="1">
          <mxGeometry x="-10" y="660" width="40" height="30" as="geometry" />
        </mxCell>
        <mxCell id="kg-7mxeYcSGcEFVd8-3E-105" value="메인보드" style="whiteSpace=wrap;html=1;align=center;" parent="1" vertex="1">
          <mxGeometry y="710" width="100" height="40" as="geometry" />
        </mxCell>
        <mxCell id="kg-7mxeYcSGcEFVd8-3E-106" value="구성 부품" style="whiteSpace=wrap;html=1;align=center;" parent="1" vertex="1">
          <mxGeometry x="350" y="710" width="100" height="40" as="geometry" />
        </mxCell>
        <mxCell id="kg-7mxeYcSGcEFVd8-3E-108" value="" style="edgeStyle=orthogonalEdgeStyle;rounded=0;orthogonalLoop=1;jettySize=auto;html=1;endArrow=none;endFill=0;" parent="1" source="kg-7mxeYcSGcEFVd8-3E-107" target="kg-7mxeYcSGcEFVd8-3E-105" edge="1">
          <mxGeometry relative="1" as="geometry" />
        </mxCell>
        <mxCell id="kg-7mxeYcSGcEFVd8-3E-109" value="" style="edgeStyle=orthogonalEdgeStyle;rounded=0;orthogonalLoop=1;jettySize=auto;html=1;endArrow=none;endFill=0;" parent="1" source="kg-7mxeYcSGcEFVd8-3E-107" target="kg-7mxeYcSGcEFVd8-3E-106" edge="1">
          <mxGeometry relative="1" as="geometry" />
        </mxCell>
        <mxCell id="kg-7mxeYcSGcEFVd8-3E-107" value="조립" style="shape=rhombus;perimeter=rhombusPerimeter;whiteSpace=wrap;html=1;align=center;" parent="1" vertex="1">
          <mxGeometry x="177.5" y="700" width="105" height="60" as="geometry" />
        </mxCell>
        <mxCell id="kg-7mxeYcSGcEFVd8-3E-110" value="가격" style="ellipse;whiteSpace=wrap;html=1;align=center;" parent="1" vertex="1">
          <mxGeometry x="100" y="770" width="40" height="40" as="geometry" />
        </mxCell>
        <mxCell id="kg-7mxeYcSGcEFVd8-3E-111" value="제조&lt;div&gt;날짜&lt;/div&gt;" style="ellipse;whiteSpace=wrap;html=1;align=center;" parent="1" vertex="1">
          <mxGeometry x="60" y="770" width="40" height="40" as="geometry" />
        </mxCell>
        <mxCell id="kg-7mxeYcSGcEFVd8-3E-112" value="제조사" style="ellipse;whiteSpace=wrap;html=1;align=center;" parent="1" vertex="1">
          <mxGeometry x="20" y="770" width="40" height="40" as="geometry" />
        </mxCell>
        <mxCell id="kg-7mxeYcSGcEFVd8-3E-113" value="일련&lt;div&gt;번호&lt;/div&gt;" style="ellipse;whiteSpace=wrap;html=1;align=center;fontStyle=4" parent="1" vertex="1">
          <mxGeometry x="-20" y="770" width="40" height="40" as="geometry" />
        </mxCell>
        <mxCell id="kg-7mxeYcSGcEFVd8-3E-114" value="제품군" style="ellipse;whiteSpace=wrap;html=1;align=center;" parent="1" vertex="1">
          <mxGeometry x="375" y="770" width="40" height="40" as="geometry" />
        </mxCell>
        <mxCell id="kg-7mxeYcSGcEFVd8-3E-115" value="제품명" style="ellipse;whiteSpace=wrap;html=1;align=center;" parent="1" vertex="1">
          <mxGeometry x="415" y="770" width="40" height="40" as="geometry" />
        </mxCell>
        <mxCell id="kg-7mxeYcSGcEFVd8-3E-116" value="제조사" style="ellipse;whiteSpace=wrap;html=1;align=center;" parent="1" vertex="1">
          <mxGeometry x="455" y="770" width="40" height="40" as="geometry" />
        </mxCell>
        <mxCell id="kg-7mxeYcSGcEFVd8-3E-118" value="부품ID" style="ellipse;whiteSpace=wrap;html=1;align=center;fontStyle=4" parent="1" vertex="1">
          <mxGeometry x="335" y="770" width="40" height="40" as="geometry" />
        </mxCell>
        <mxCell id="kg-7mxeYcSGcEFVd8-3E-121" value="1" style="text;html=1;align=center;verticalAlign=middle;resizable=0;points=[];autosize=1;strokeColor=none;fillColor=none;" parent="1" vertex="1">
          <mxGeometry x="165" y="688" width="30" height="30" as="geometry" />
        </mxCell>
        <mxCell id="kg-7mxeYcSGcEFVd8-3E-122" value="N" style="text;html=1;align=center;verticalAlign=middle;resizable=0;points=[];autosize=1;strokeColor=none;fillColor=none;" parent="1" vertex="1">
          <mxGeometry x="265" y="688" width="30" height="30" as="geometry" />
        </mxCell>
        <mxCell id="kg-7mxeYcSGcEFVd8-3E-155" value="" style="edgeStyle=orthogonalEdgeStyle;rounded=0;orthogonalLoop=1;jettySize=auto;html=1;endArrow=ERoneToMany;endFill=0;startArrow=ERone;startFill=0;" parent="1" source="kg-7mxeYcSGcEFVd8-3E-123" target="kg-7mxeYcSGcEFVd8-3E-142" edge="1">
          <mxGeometry relative="1" as="geometry" />
        </mxCell>
        <mxCell id="kg-7mxeYcSGcEFVd8-3E-123" value="메인보드" style="shape=table;startSize=30;container=1;collapsible=1;childLayout=tableLayout;fixedRows=1;rowLines=0;fontStyle=1;align=center;resizeLast=1;html=1;" parent="1" vertex="1">
          <mxGeometry x="580" y="710" width="140" height="150" as="geometry" />
        </mxCell>
        <mxCell id="kg-7mxeYcSGcEFVd8-3E-124" value="" style="shape=tableRow;horizontal=0;startSize=0;swimlaneHead=0;swimlaneBody=0;fillColor=none;collapsible=0;dropTarget=0;points=[[0,0.5],[1,0.5]];portConstraint=eastwest;top=0;left=0;right=0;bottom=1;" parent="kg-7mxeYcSGcEFVd8-3E-123" vertex="1">
          <mxGeometry y="30" width="140" height="30" as="geometry" />
        </mxCell>
        <mxCell id="kg-7mxeYcSGcEFVd8-3E-125" value="PK" style="shape=partialRectangle;connectable=0;fillColor=none;top=0;left=0;bottom=0;right=0;fontStyle=1;overflow=hidden;whiteSpace=wrap;html=1;" parent="kg-7mxeYcSGcEFVd8-3E-124" vertex="1">
          <mxGeometry width="30" height="30" as="geometry">
            <mxRectangle width="30" height="30" as="alternateBounds" />
          </mxGeometry>
        </mxCell>
        <mxCell id="kg-7mxeYcSGcEFVd8-3E-126" value="일련번호" style="shape=partialRectangle;connectable=0;fillColor=none;top=0;left=0;bottom=0;right=0;align=left;spacingLeft=6;fontStyle=5;overflow=hidden;whiteSpace=wrap;html=1;" parent="kg-7mxeYcSGcEFVd8-3E-124" vertex="1">
          <mxGeometry x="30" width="110" height="30" as="geometry">
            <mxRectangle width="110" height="30" as="alternateBounds" />
          </mxGeometry>
        </mxCell>
        <mxCell id="kg-7mxeYcSGcEFVd8-3E-127" value="" style="shape=tableRow;horizontal=0;startSize=0;swimlaneHead=0;swimlaneBody=0;fillColor=none;collapsible=0;dropTarget=0;points=[[0,0.5],[1,0.5]];portConstraint=eastwest;top=0;left=0;right=0;bottom=0;" parent="kg-7mxeYcSGcEFVd8-3E-123" vertex="1">
          <mxGeometry y="60" width="140" height="30" as="geometry" />
        </mxCell>
        <mxCell id="kg-7mxeYcSGcEFVd8-3E-128" value="" style="shape=partialRectangle;connectable=0;fillColor=none;top=0;left=0;bottom=0;right=0;editable=1;overflow=hidden;whiteSpace=wrap;html=1;" parent="kg-7mxeYcSGcEFVd8-3E-127" vertex="1">
          <mxGeometry width="30" height="30" as="geometry">
            <mxRectangle width="30" height="30" as="alternateBounds" />
          </mxGeometry>
        </mxCell>
        <mxCell id="kg-7mxeYcSGcEFVd8-3E-129" value="" style="shape=partialRectangle;connectable=0;fillColor=none;top=0;left=0;bottom=0;right=0;align=left;spacingLeft=6;overflow=hidden;whiteSpace=wrap;html=1;" parent="kg-7mxeYcSGcEFVd8-3E-127" vertex="1">
          <mxGeometry x="30" width="110" height="30" as="geometry">
            <mxRectangle width="110" height="30" as="alternateBounds" />
          </mxGeometry>
        </mxCell>
        <mxCell id="kg-7mxeYcSGcEFVd8-3E-130" value="" style="shape=tableRow;horizontal=0;startSize=0;swimlaneHead=0;swimlaneBody=0;fillColor=none;collapsible=0;dropTarget=0;points=[[0,0.5],[1,0.5]];portConstraint=eastwest;top=0;left=0;right=0;bottom=0;" parent="kg-7mxeYcSGcEFVd8-3E-123" vertex="1">
          <mxGeometry y="90" width="140" height="30" as="geometry" />
        </mxCell>
        <mxCell id="kg-7mxeYcSGcEFVd8-3E-131" value="" style="shape=partialRectangle;connectable=0;fillColor=none;top=0;left=0;bottom=0;right=0;editable=1;overflow=hidden;whiteSpace=wrap;html=1;" parent="kg-7mxeYcSGcEFVd8-3E-130" vertex="1">
          <mxGeometry width="30" height="30" as="geometry">
            <mxRectangle width="30" height="30" as="alternateBounds" />
          </mxGeometry>
        </mxCell>
        <mxCell id="kg-7mxeYcSGcEFVd8-3E-132" value="-" style="shape=partialRectangle;connectable=0;fillColor=none;top=0;left=0;bottom=0;right=0;align=left;spacingLeft=6;overflow=hidden;whiteSpace=wrap;html=1;" parent="kg-7mxeYcSGcEFVd8-3E-130" vertex="1">
          <mxGeometry x="30" width="110" height="30" as="geometry">
            <mxRectangle width="110" height="30" as="alternateBounds" />
          </mxGeometry>
        </mxCell>
        <mxCell id="kg-7mxeYcSGcEFVd8-3E-133" value="" style="shape=tableRow;horizontal=0;startSize=0;swimlaneHead=0;swimlaneBody=0;fillColor=none;collapsible=0;dropTarget=0;points=[[0,0.5],[1,0.5]];portConstraint=eastwest;top=0;left=0;right=0;bottom=0;" parent="kg-7mxeYcSGcEFVd8-3E-123" vertex="1">
          <mxGeometry y="120" width="140" height="30" as="geometry" />
        </mxCell>
        <mxCell id="kg-7mxeYcSGcEFVd8-3E-134" value="" style="shape=partialRectangle;connectable=0;fillColor=none;top=0;left=0;bottom=0;right=0;editable=1;overflow=hidden;whiteSpace=wrap;html=1;" parent="kg-7mxeYcSGcEFVd8-3E-133" vertex="1">
          <mxGeometry width="30" height="30" as="geometry">
            <mxRectangle width="30" height="30" as="alternateBounds" />
          </mxGeometry>
        </mxCell>
        <mxCell id="kg-7mxeYcSGcEFVd8-3E-135" value="-" style="shape=partialRectangle;connectable=0;fillColor=none;top=0;left=0;bottom=0;right=0;align=left;spacingLeft=6;overflow=hidden;whiteSpace=wrap;html=1;" parent="kg-7mxeYcSGcEFVd8-3E-133" vertex="1">
          <mxGeometry x="30" width="110" height="30" as="geometry">
            <mxRectangle width="110" height="30" as="alternateBounds" />
          </mxGeometry>
        </mxCell>
        <mxCell id="kg-7mxeYcSGcEFVd8-3E-142" value="구성부품" style="shape=table;startSize=30;container=1;collapsible=1;childLayout=tableLayout;fixedRows=1;rowLines=0;fontStyle=1;align=center;resizeLast=1;html=1;" parent="1" vertex="1">
          <mxGeometry x="800" y="710" width="140" height="150" as="geometry" />
        </mxCell>
        <mxCell id="kg-7mxeYcSGcEFVd8-3E-143" value="" style="shape=tableRow;horizontal=0;startSize=0;swimlaneHead=0;swimlaneBody=0;fillColor=none;collapsible=0;dropTarget=0;points=[[0,0.5],[1,0.5]];portConstraint=eastwest;top=0;left=0;right=0;bottom=1;" parent="kg-7mxeYcSGcEFVd8-3E-142" vertex="1">
          <mxGeometry y="30" width="140" height="30" as="geometry" />
        </mxCell>
        <mxCell id="kg-7mxeYcSGcEFVd8-3E-144" value="PK" style="shape=partialRectangle;connectable=0;fillColor=none;top=0;left=0;bottom=0;right=0;fontStyle=1;overflow=hidden;whiteSpace=wrap;html=1;" parent="kg-7mxeYcSGcEFVd8-3E-143" vertex="1">
          <mxGeometry width="30" height="30" as="geometry">
            <mxRectangle width="30" height="30" as="alternateBounds" />
          </mxGeometry>
        </mxCell>
        <mxCell id="kg-7mxeYcSGcEFVd8-3E-145" value="부품ID" style="shape=partialRectangle;connectable=0;fillColor=none;top=0;left=0;bottom=0;right=0;align=left;spacingLeft=6;fontStyle=5;overflow=hidden;whiteSpace=wrap;html=1;" parent="kg-7mxeYcSGcEFVd8-3E-143" vertex="1">
          <mxGeometry x="30" width="110" height="30" as="geometry">
            <mxRectangle width="110" height="30" as="alternateBounds" />
          </mxGeometry>
        </mxCell>
        <mxCell id="kg-7mxeYcSGcEFVd8-3E-146" value="" style="shape=tableRow;horizontal=0;startSize=0;swimlaneHead=0;swimlaneBody=0;fillColor=none;collapsible=0;dropTarget=0;points=[[0,0.5],[1,0.5]];portConstraint=eastwest;top=0;left=0;right=0;bottom=0;" parent="kg-7mxeYcSGcEFVd8-3E-142" vertex="1">
          <mxGeometry y="60" width="140" height="30" as="geometry" />
        </mxCell>
        <mxCell id="kg-7mxeYcSGcEFVd8-3E-147" value="FK" style="shape=partialRectangle;connectable=0;fillColor=none;top=0;left=0;bottom=0;right=0;editable=1;overflow=hidden;whiteSpace=wrap;html=1;" parent="kg-7mxeYcSGcEFVd8-3E-146" vertex="1">
          <mxGeometry width="30" height="30" as="geometry">
            <mxRectangle width="30" height="30" as="alternateBounds" />
          </mxGeometry>
        </mxCell>
        <mxCell id="kg-7mxeYcSGcEFVd8-3E-148" value="메인보드일련번호" style="shape=partialRectangle;connectable=0;fillColor=none;top=0;left=0;bottom=0;right=0;align=left;spacingLeft=6;overflow=hidden;whiteSpace=wrap;html=1;" parent="kg-7mxeYcSGcEFVd8-3E-146" vertex="1">
          <mxGeometry x="30" width="110" height="30" as="geometry">
            <mxRectangle width="110" height="30" as="alternateBounds" />
          </mxGeometry>
        </mxCell>
        <mxCell id="kg-7mxeYcSGcEFVd8-3E-149" value="" style="shape=tableRow;horizontal=0;startSize=0;swimlaneHead=0;swimlaneBody=0;fillColor=none;collapsible=0;dropTarget=0;points=[[0,0.5],[1,0.5]];portConstraint=eastwest;top=0;left=0;right=0;bottom=0;" parent="kg-7mxeYcSGcEFVd8-3E-142" vertex="1">
          <mxGeometry y="90" width="140" height="30" as="geometry" />
        </mxCell>
        <mxCell id="kg-7mxeYcSGcEFVd8-3E-150" value="" style="shape=partialRectangle;connectable=0;fillColor=none;top=0;left=0;bottom=0;right=0;editable=1;overflow=hidden;whiteSpace=wrap;html=1;" parent="kg-7mxeYcSGcEFVd8-3E-149" vertex="1">
          <mxGeometry width="30" height="30" as="geometry">
            <mxRectangle width="30" height="30" as="alternateBounds" />
          </mxGeometry>
        </mxCell>
        <mxCell id="kg-7mxeYcSGcEFVd8-3E-151" value="-" style="shape=partialRectangle;connectable=0;fillColor=none;top=0;left=0;bottom=0;right=0;align=left;spacingLeft=6;overflow=hidden;whiteSpace=wrap;html=1;" parent="kg-7mxeYcSGcEFVd8-3E-149" vertex="1">
          <mxGeometry x="30" width="110" height="30" as="geometry">
            <mxRectangle width="110" height="30" as="alternateBounds" />
          </mxGeometry>
        </mxCell>
        <mxCell id="kg-7mxeYcSGcEFVd8-3E-152" value="" style="shape=tableRow;horizontal=0;startSize=0;swimlaneHead=0;swimlaneBody=0;fillColor=none;collapsible=0;dropTarget=0;points=[[0,0.5],[1,0.5]];portConstraint=eastwest;top=0;left=0;right=0;bottom=0;" parent="kg-7mxeYcSGcEFVd8-3E-142" vertex="1">
          <mxGeometry y="120" width="140" height="30" as="geometry" />
        </mxCell>
        <mxCell id="kg-7mxeYcSGcEFVd8-3E-153" value="" style="shape=partialRectangle;connectable=0;fillColor=none;top=0;left=0;bottom=0;right=0;editable=1;overflow=hidden;whiteSpace=wrap;html=1;" parent="kg-7mxeYcSGcEFVd8-3E-152" vertex="1">
          <mxGeometry width="30" height="30" as="geometry">
            <mxRectangle width="30" height="30" as="alternateBounds" />
          </mxGeometry>
        </mxCell>
        <mxCell id="kg-7mxeYcSGcEFVd8-3E-154" value="-" style="shape=partialRectangle;connectable=0;fillColor=none;top=0;left=0;bottom=0;right=0;align=left;spacingLeft=6;overflow=hidden;whiteSpace=wrap;html=1;" parent="kg-7mxeYcSGcEFVd8-3E-152" vertex="1">
          <mxGeometry x="30" width="110" height="30" as="geometry">
            <mxRectangle width="110" height="30" as="alternateBounds" />
          </mxGeometry>
        </mxCell>
        <mxCell id="kg-7mxeYcSGcEFVd8-3E-156" value="1:1" style="text;html=1;align=center;verticalAlign=middle;resizable=0;points=[];autosize=1;strokeColor=none;fillColor=none;" parent="1" vertex="1">
          <mxGeometry x="30" y="348" width="40" height="30" as="geometry" />
        </mxCell>
        <mxCell id="kg-7mxeYcSGcEFVd8-3E-157" value="차량 - 차량등록증" style="text;html=1;align=center;verticalAlign=middle;resizable=0;points=[];autosize=1;strokeColor=none;fillColor=none;" parent="1" vertex="1">
          <mxGeometry x="70" y="348" width="120" height="30" as="geometry" />
        </mxCell>
        <mxCell id="kg-7mxeYcSGcEFVd8-3E-158" value="국가 - 수도" style="text;html=1;align=center;verticalAlign=middle;resizable=0;points=[];autosize=1;strokeColor=none;fillColor=none;" parent="1" vertex="1">
          <mxGeometry x="30" y="390" width="80" height="30" as="geometry" />
        </mxCell>
        <mxCell id="kg-7mxeYcSGcEFVd8-3E-159" value="제품 - 제품상세정보" style="text;html=1;align=center;verticalAlign=middle;resizable=0;points=[];autosize=1;strokeColor=none;fillColor=none;" parent="1" vertex="1">
          <mxGeometry x="190" y="348" width="130" height="30" as="geometry" />
        </mxCell>
        <mxCell id="kg-7mxeYcSGcEFVd8-3E-160" value="국가" style="whiteSpace=wrap;html=1;align=center;" parent="1" vertex="1">
          <mxGeometry x="40" y="440" width="100" height="40" as="geometry" />
        </mxCell>
        <mxCell id="kg-7mxeYcSGcEFVd8-3E-161" value="국가명" style="ellipse;whiteSpace=wrap;html=1;align=center;" parent="1" vertex="1">
          <mxGeometry x="45" y="500" width="40" height="40" as="geometry" />
        </mxCell>
        <mxCell id="kg-7mxeYcSGcEFVd8-3E-163" value="수도" style="whiteSpace=wrap;html=1;align=center;" parent="1" vertex="1">
          <mxGeometry x="283.75" y="440" width="100" height="40" as="geometry" />
        </mxCell>
        <mxCell id="kg-7mxeYcSGcEFVd8-3E-164" value="총면적" style="ellipse;whiteSpace=wrap;html=1;align=center;" parent="1" vertex="1">
          <mxGeometry x="85" y="500" width="40" height="40" as="geometry" />
        </mxCell>
        <mxCell id="kg-7mxeYcSGcEFVd8-3E-165" value="인구" style="ellipse;whiteSpace=wrap;html=1;align=center;" parent="1" vertex="1">
          <mxGeometry x="125" y="500" width="40" height="40" as="geometry" />
        </mxCell>
        <mxCell id="kg-7mxeYcSGcEFVd8-3E-166" value="수도명" style="ellipse;whiteSpace=wrap;html=1;align=center;" parent="1" vertex="1">
          <mxGeometry x="360" y="500" width="40" height="40" as="geometry" />
        </mxCell>
        <mxCell id="kg-7mxeYcSGcEFVd8-3E-167" value="랜드&lt;div&gt;마크&lt;/div&gt;" style="ellipse;whiteSpace=wrap;html=1;align=center;" parent="1" vertex="1">
          <mxGeometry x="405" y="500" width="40" height="40" as="geometry" />
        </mxCell>
        <mxCell id="kg-7mxeYcSGcEFVd8-3E-168" value="특산물" style="ellipse;whiteSpace=wrap;html=1;align=center;" parent="1" vertex="1">
          <mxGeometry x="445" y="500" width="40" height="40" as="geometry" />
        </mxCell>
        <mxCell id="kg-7mxeYcSGcEFVd8-3E-169" value="수도ID" style="ellipse;whiteSpace=wrap;html=1;align=center;fontStyle=4" parent="1" vertex="1">
          <mxGeometry x="271.25" y="500" width="40" height="40" as="geometry" />
        </mxCell>
        <mxCell id="kg-7mxeYcSGcEFVd8-3E-170" value="국가ID&lt;br&gt;PK" style="ellipse;whiteSpace=wrap;html=1;align=center;fontStyle=4" parent="1" vertex="1">
          <mxGeometry x="5" y="500" width="40" height="40" as="geometry" />
        </mxCell>
        <mxCell id="kg-7mxeYcSGcEFVd8-3E-171" value="중심도시&lt;div&gt;&amp;lt;포함관계&amp;gt;&lt;/div&gt;" style="shape=rhombus;perimeter=rhombusPerimeter;whiteSpace=wrap;html=1;align=center;" parent="1" vertex="1">
          <mxGeometry x="165" y="430" width="100" height="60" as="geometry" />
        </mxCell>
        <mxCell id="kg-7mxeYcSGcEFVd8-3E-172" value="1" style="text;html=1;align=center;verticalAlign=middle;resizable=0;points=[];autosize=1;strokeColor=none;fillColor=none;" parent="1" vertex="1">
          <mxGeometry x="150" y="430" width="30" height="30" as="geometry" />
        </mxCell>
        <mxCell id="kg-7mxeYcSGcEFVd8-3E-173" value="1" style="text;html=1;align=center;verticalAlign=middle;resizable=0;points=[];autosize=1;strokeColor=none;fillColor=none;" parent="1" vertex="1">
          <mxGeometry x="241.25" y="430" width="30" height="30" as="geometry" />
        </mxCell>
        <mxCell id="kg-7mxeYcSGcEFVd8-3E-174" value="국가ID&lt;div&gt;FK&lt;/div&gt;" style="ellipse;whiteSpace=wrap;html=1;align=center;fontStyle=4" parent="1" vertex="1">
          <mxGeometry x="313.75" y="500" width="40" height="40" as="geometry" />
        </mxCell>
        <mxCell id="kg-7mxeYcSGcEFVd8-3E-201" value="" style="edgeStyle=orthogonalEdgeStyle;rounded=0;orthogonalLoop=1;jettySize=auto;html=1;endArrow=ERone;endFill=0;startArrow=ERone;startFill=0;" parent="1" source="kg-7mxeYcSGcEFVd8-3E-175" target="kg-7mxeYcSGcEFVd8-3E-188" edge="1">
          <mxGeometry relative="1" as="geometry" />
        </mxCell>
        <mxCell id="kg-7mxeYcSGcEFVd8-3E-175" value="국가" style="shape=table;startSize=30;container=1;collapsible=1;childLayout=tableLayout;fixedRows=1;rowLines=0;fontStyle=1;align=center;resizeLast=1;html=1;" parent="1" vertex="1">
          <mxGeometry x="590" y="420" width="180" height="150" as="geometry" />
        </mxCell>
        <mxCell id="kg-7mxeYcSGcEFVd8-3E-176" value="" style="shape=tableRow;horizontal=0;startSize=0;swimlaneHead=0;swimlaneBody=0;fillColor=none;collapsible=0;dropTarget=0;points=[[0,0.5],[1,0.5]];portConstraint=eastwest;top=0;left=0;right=0;bottom=1;" parent="kg-7mxeYcSGcEFVd8-3E-175" vertex="1">
          <mxGeometry y="30" width="180" height="30" as="geometry" />
        </mxCell>
        <mxCell id="kg-7mxeYcSGcEFVd8-3E-177" value="PK" style="shape=partialRectangle;connectable=0;fillColor=none;top=0;left=0;bottom=0;right=0;fontStyle=1;overflow=hidden;whiteSpace=wrap;html=1;" parent="kg-7mxeYcSGcEFVd8-3E-176" vertex="1">
          <mxGeometry width="30" height="30" as="geometry">
            <mxRectangle width="30" height="30" as="alternateBounds" />
          </mxGeometry>
        </mxCell>
        <mxCell id="kg-7mxeYcSGcEFVd8-3E-178" value="국가ID" style="shape=partialRectangle;connectable=0;fillColor=none;top=0;left=0;bottom=0;right=0;align=left;spacingLeft=6;fontStyle=5;overflow=hidden;whiteSpace=wrap;html=1;" parent="kg-7mxeYcSGcEFVd8-3E-176" vertex="1">
          <mxGeometry x="30" width="150" height="30" as="geometry">
            <mxRectangle width="150" height="30" as="alternateBounds" />
          </mxGeometry>
        </mxCell>
        <mxCell id="kg-7mxeYcSGcEFVd8-3E-179" value="" style="shape=tableRow;horizontal=0;startSize=0;swimlaneHead=0;swimlaneBody=0;fillColor=none;collapsible=0;dropTarget=0;points=[[0,0.5],[1,0.5]];portConstraint=eastwest;top=0;left=0;right=0;bottom=0;" parent="kg-7mxeYcSGcEFVd8-3E-175" vertex="1">
          <mxGeometry y="60" width="180" height="30" as="geometry" />
        </mxCell>
        <mxCell id="kg-7mxeYcSGcEFVd8-3E-180" value="" style="shape=partialRectangle;connectable=0;fillColor=none;top=0;left=0;bottom=0;right=0;editable=1;overflow=hidden;whiteSpace=wrap;html=1;" parent="kg-7mxeYcSGcEFVd8-3E-179" vertex="1">
          <mxGeometry width="30" height="30" as="geometry">
            <mxRectangle width="30" height="30" as="alternateBounds" />
          </mxGeometry>
        </mxCell>
        <mxCell id="kg-7mxeYcSGcEFVd8-3E-181" value="Row 1" style="shape=partialRectangle;connectable=0;fillColor=none;top=0;left=0;bottom=0;right=0;align=left;spacingLeft=6;overflow=hidden;whiteSpace=wrap;html=1;" parent="kg-7mxeYcSGcEFVd8-3E-179" vertex="1">
          <mxGeometry x="30" width="150" height="30" as="geometry">
            <mxRectangle width="150" height="30" as="alternateBounds" />
          </mxGeometry>
        </mxCell>
        <mxCell id="kg-7mxeYcSGcEFVd8-3E-182" value="" style="shape=tableRow;horizontal=0;startSize=0;swimlaneHead=0;swimlaneBody=0;fillColor=none;collapsible=0;dropTarget=0;points=[[0,0.5],[1,0.5]];portConstraint=eastwest;top=0;left=0;right=0;bottom=0;" parent="kg-7mxeYcSGcEFVd8-3E-175" vertex="1">
          <mxGeometry y="90" width="180" height="30" as="geometry" />
        </mxCell>
        <mxCell id="kg-7mxeYcSGcEFVd8-3E-183" value="" style="shape=partialRectangle;connectable=0;fillColor=none;top=0;left=0;bottom=0;right=0;editable=1;overflow=hidden;whiteSpace=wrap;html=1;" parent="kg-7mxeYcSGcEFVd8-3E-182" vertex="1">
          <mxGeometry width="30" height="30" as="geometry">
            <mxRectangle width="30" height="30" as="alternateBounds" />
          </mxGeometry>
        </mxCell>
        <mxCell id="kg-7mxeYcSGcEFVd8-3E-184" value="Row 2" style="shape=partialRectangle;connectable=0;fillColor=none;top=0;left=0;bottom=0;right=0;align=left;spacingLeft=6;overflow=hidden;whiteSpace=wrap;html=1;" parent="kg-7mxeYcSGcEFVd8-3E-182" vertex="1">
          <mxGeometry x="30" width="150" height="30" as="geometry">
            <mxRectangle width="150" height="30" as="alternateBounds" />
          </mxGeometry>
        </mxCell>
        <mxCell id="kg-7mxeYcSGcEFVd8-3E-185" value="" style="shape=tableRow;horizontal=0;startSize=0;swimlaneHead=0;swimlaneBody=0;fillColor=none;collapsible=0;dropTarget=0;points=[[0,0.5],[1,0.5]];portConstraint=eastwest;top=0;left=0;right=0;bottom=0;" parent="kg-7mxeYcSGcEFVd8-3E-175" vertex="1">
          <mxGeometry y="120" width="180" height="30" as="geometry" />
        </mxCell>
        <mxCell id="kg-7mxeYcSGcEFVd8-3E-186" value="" style="shape=partialRectangle;connectable=0;fillColor=none;top=0;left=0;bottom=0;right=0;editable=1;overflow=hidden;whiteSpace=wrap;html=1;" parent="kg-7mxeYcSGcEFVd8-3E-185" vertex="1">
          <mxGeometry width="30" height="30" as="geometry">
            <mxRectangle width="30" height="30" as="alternateBounds" />
          </mxGeometry>
        </mxCell>
        <mxCell id="kg-7mxeYcSGcEFVd8-3E-187" value="Row 3" style="shape=partialRectangle;connectable=0;fillColor=none;top=0;left=0;bottom=0;right=0;align=left;spacingLeft=6;overflow=hidden;whiteSpace=wrap;html=1;" parent="kg-7mxeYcSGcEFVd8-3E-185" vertex="1">
          <mxGeometry x="30" width="150" height="30" as="geometry">
            <mxRectangle width="150" height="30" as="alternateBounds" />
          </mxGeometry>
        </mxCell>
        <mxCell id="kg-7mxeYcSGcEFVd8-3E-188" value="수도" style="shape=table;startSize=30;container=1;collapsible=1;childLayout=tableLayout;fixedRows=1;rowLines=0;fontStyle=1;align=center;resizeLast=1;html=1;" parent="1" vertex="1">
          <mxGeometry x="860" y="420" width="180" height="150" as="geometry" />
        </mxCell>
        <mxCell id="kg-7mxeYcSGcEFVd8-3E-189" value="" style="shape=tableRow;horizontal=0;startSize=0;swimlaneHead=0;swimlaneBody=0;fillColor=none;collapsible=0;dropTarget=0;points=[[0,0.5],[1,0.5]];portConstraint=eastwest;top=0;left=0;right=0;bottom=1;" parent="kg-7mxeYcSGcEFVd8-3E-188" vertex="1">
          <mxGeometry y="30" width="180" height="30" as="geometry" />
        </mxCell>
        <mxCell id="kg-7mxeYcSGcEFVd8-3E-190" value="PK" style="shape=partialRectangle;connectable=0;fillColor=none;top=0;left=0;bottom=0;right=0;fontStyle=1;overflow=hidden;whiteSpace=wrap;html=1;" parent="kg-7mxeYcSGcEFVd8-3E-189" vertex="1">
          <mxGeometry width="30" height="30" as="geometry">
            <mxRectangle width="30" height="30" as="alternateBounds" />
          </mxGeometry>
        </mxCell>
        <mxCell id="kg-7mxeYcSGcEFVd8-3E-191" value="수도ID" style="shape=partialRectangle;connectable=0;fillColor=none;top=0;left=0;bottom=0;right=0;align=left;spacingLeft=6;fontStyle=5;overflow=hidden;whiteSpace=wrap;html=1;" parent="kg-7mxeYcSGcEFVd8-3E-189" vertex="1">
          <mxGeometry x="30" width="150" height="30" as="geometry">
            <mxRectangle width="150" height="30" as="alternateBounds" />
          </mxGeometry>
        </mxCell>
        <mxCell id="kg-7mxeYcSGcEFVd8-3E-192" value="" style="shape=tableRow;horizontal=0;startSize=0;swimlaneHead=0;swimlaneBody=0;fillColor=none;collapsible=0;dropTarget=0;points=[[0,0.5],[1,0.5]];portConstraint=eastwest;top=0;left=0;right=0;bottom=0;" parent="kg-7mxeYcSGcEFVd8-3E-188" vertex="1">
          <mxGeometry y="60" width="180" height="30" as="geometry" />
        </mxCell>
        <mxCell id="kg-7mxeYcSGcEFVd8-3E-193" value="FK" style="shape=partialRectangle;connectable=0;fillColor=none;top=0;left=0;bottom=0;right=0;editable=1;overflow=hidden;whiteSpace=wrap;html=1;" parent="kg-7mxeYcSGcEFVd8-3E-192" vertex="1">
          <mxGeometry width="30" height="30" as="geometry">
            <mxRectangle width="30" height="30" as="alternateBounds" />
          </mxGeometry>
        </mxCell>
        <mxCell id="kg-7mxeYcSGcEFVd8-3E-194" value="국가ID" style="shape=partialRectangle;connectable=0;fillColor=none;top=0;left=0;bottom=0;right=0;align=left;spacingLeft=6;overflow=hidden;whiteSpace=wrap;html=1;" parent="kg-7mxeYcSGcEFVd8-3E-192" vertex="1">
          <mxGeometry x="30" width="150" height="30" as="geometry">
            <mxRectangle width="150" height="30" as="alternateBounds" />
          </mxGeometry>
        </mxCell>
        <mxCell id="kg-7mxeYcSGcEFVd8-3E-195" value="" style="shape=tableRow;horizontal=0;startSize=0;swimlaneHead=0;swimlaneBody=0;fillColor=none;collapsible=0;dropTarget=0;points=[[0,0.5],[1,0.5]];portConstraint=eastwest;top=0;left=0;right=0;bottom=0;" parent="kg-7mxeYcSGcEFVd8-3E-188" vertex="1">
          <mxGeometry y="90" width="180" height="30" as="geometry" />
        </mxCell>
        <mxCell id="kg-7mxeYcSGcEFVd8-3E-196" value="" style="shape=partialRectangle;connectable=0;fillColor=none;top=0;left=0;bottom=0;right=0;editable=1;overflow=hidden;whiteSpace=wrap;html=1;" parent="kg-7mxeYcSGcEFVd8-3E-195" vertex="1">
          <mxGeometry width="30" height="30" as="geometry">
            <mxRectangle width="30" height="30" as="alternateBounds" />
          </mxGeometry>
        </mxCell>
        <mxCell id="kg-7mxeYcSGcEFVd8-3E-197" value="Row 2" style="shape=partialRectangle;connectable=0;fillColor=none;top=0;left=0;bottom=0;right=0;align=left;spacingLeft=6;overflow=hidden;whiteSpace=wrap;html=1;" parent="kg-7mxeYcSGcEFVd8-3E-195" vertex="1">
          <mxGeometry x="30" width="150" height="30" as="geometry">
            <mxRectangle width="150" height="30" as="alternateBounds" />
          </mxGeometry>
        </mxCell>
        <mxCell id="kg-7mxeYcSGcEFVd8-3E-198" value="" style="shape=tableRow;horizontal=0;startSize=0;swimlaneHead=0;swimlaneBody=0;fillColor=none;collapsible=0;dropTarget=0;points=[[0,0.5],[1,0.5]];portConstraint=eastwest;top=0;left=0;right=0;bottom=0;" parent="kg-7mxeYcSGcEFVd8-3E-188" vertex="1">
          <mxGeometry y="120" width="180" height="30" as="geometry" />
        </mxCell>
        <mxCell id="kg-7mxeYcSGcEFVd8-3E-199" value="" style="shape=partialRectangle;connectable=0;fillColor=none;top=0;left=0;bottom=0;right=0;editable=1;overflow=hidden;whiteSpace=wrap;html=1;" parent="kg-7mxeYcSGcEFVd8-3E-198" vertex="1">
          <mxGeometry width="30" height="30" as="geometry">
            <mxRectangle width="30" height="30" as="alternateBounds" />
          </mxGeometry>
        </mxCell>
        <mxCell id="kg-7mxeYcSGcEFVd8-3E-200" value="Row 3" style="shape=partialRectangle;connectable=0;fillColor=none;top=0;left=0;bottom=0;right=0;align=left;spacingLeft=6;overflow=hidden;whiteSpace=wrap;html=1;" parent="kg-7mxeYcSGcEFVd8-3E-198" vertex="1">
          <mxGeometry x="30" width="150" height="30" as="geometry">
            <mxRectangle width="150" height="30" as="alternateBounds" />
          </mxGeometry>
        </mxCell>
        <mxCell id="kg-7mxeYcSGcEFVd8-3E-204" value="1:N 매장 - 직원&lt;div&gt;1:N 부서 - 직원&lt;/div&gt;" style="text;html=1;align=center;verticalAlign=middle;resizable=0;points=[];autosize=1;strokeColor=none;fillColor=none;" parent="1" vertex="1">
          <mxGeometry x="-10" y="1050" width="100" height="40" as="geometry" />
        </mxCell>
        <mxCell id="kg-7mxeYcSGcEFVd8-3E-206" value="직원기본정보 - 직원프로필" style="text;html=1;align=center;verticalAlign=middle;resizable=0;points=[];autosize=1;strokeColor=none;fillColor=none;" parent="1" vertex="1">
          <mxGeometry x="330" y="348" width="170" height="30" as="geometry" />
        </mxCell>
        <mxCell id="kg-7mxeYcSGcEFVd8-3E-207" value="매장" style="whiteSpace=wrap;html=1;align=center;" parent="1" vertex="1">
          <mxGeometry y="1120" width="100" height="40" as="geometry" />
        </mxCell>
        <mxCell id="kg-7mxeYcSGcEFVd8-3E-208" value="직원" style="whiteSpace=wrap;html=1;align=center;" parent="1" vertex="1">
          <mxGeometry x="330" y="1120" width="100" height="40" as="geometry" />
        </mxCell>
        <mxCell id="kg-7mxeYcSGcEFVd8-3E-210" value="" style="edgeStyle=orthogonalEdgeStyle;rounded=0;orthogonalLoop=1;jettySize=auto;html=1;endArrow=none;endFill=0;" parent="1" source="kg-7mxeYcSGcEFVd8-3E-209" target="kg-7mxeYcSGcEFVd8-3E-207" edge="1">
          <mxGeometry relative="1" as="geometry" />
        </mxCell>
        <mxCell id="kg-7mxeYcSGcEFVd8-3E-211" value="" style="edgeStyle=orthogonalEdgeStyle;rounded=0;orthogonalLoop=1;jettySize=auto;html=1;endArrow=none;endFill=0;" parent="1" source="kg-7mxeYcSGcEFVd8-3E-209" target="kg-7mxeYcSGcEFVd8-3E-208" edge="1">
          <mxGeometry relative="1" as="geometry" />
        </mxCell>
        <mxCell id="kg-7mxeYcSGcEFVd8-3E-209" value="소속" style="shape=rhombus;perimeter=rhombusPerimeter;whiteSpace=wrap;html=1;align=center;" parent="1" vertex="1">
          <mxGeometry x="155" y="1110" width="120" height="60" as="geometry" />
        </mxCell>
        <mxCell id="kg-7mxeYcSGcEFVd8-3E-212" value="1" style="text;html=1;align=center;verticalAlign=middle;resizable=0;points=[];autosize=1;strokeColor=none;fillColor=none;" parent="1" vertex="1">
          <mxGeometry x="145" y="1098" width="30" height="30" as="geometry" />
        </mxCell>
        <mxCell id="kg-7mxeYcSGcEFVd8-3E-213" value="N" style="text;html=1;align=center;verticalAlign=middle;resizable=0;points=[];autosize=1;strokeColor=none;fillColor=none;" parent="1" vertex="1">
          <mxGeometry x="255" y="1098" width="30" height="30" as="geometry" />
        </mxCell>
        <mxCell id="kg-7mxeYcSGcEFVd8-3E-214" value="매장ID" style="ellipse;whiteSpace=wrap;html=1;align=center;fontStyle=4" parent="1" vertex="1">
          <mxGeometry x="-10" y="1180" width="40" height="40" as="geometry" />
        </mxCell>
        <mxCell id="kg-7mxeYcSGcEFVd8-3E-215" value="주소" style="ellipse;whiteSpace=wrap;html=1;align=center;" parent="1" vertex="1">
          <mxGeometry x="30" y="1180" width="40" height="40" as="geometry" />
        </mxCell>
        <mxCell id="kg-7mxeYcSGcEFVd8-3E-216" value="연락처" style="ellipse;whiteSpace=wrap;html=1;align=center;" parent="1" vertex="1">
          <mxGeometry x="70" y="1180" width="40" height="40" as="geometry" />
        </mxCell>
        <mxCell id="kg-7mxeYcSGcEFVd8-3E-217" value="직원ID" style="ellipse;whiteSpace=wrap;html=1;align=center;fontStyle=4" parent="1" vertex="1">
          <mxGeometry x="280" y="1170" width="40" height="40" as="geometry" />
        </mxCell>
        <mxCell id="kg-7mxeYcSGcEFVd8-3E-219" value="직급" style="ellipse;whiteSpace=wrap;html=1;align=center;fontStyle=0" parent="1" vertex="1">
          <mxGeometry x="425" y="1170" width="40" height="40" as="geometry" />
        </mxCell>
        <mxCell id="kg-7mxeYcSGcEFVd8-3E-221" value="프로필" style="whiteSpace=wrap;html=1;align=center;" parent="1" vertex="1">
          <mxGeometry x="330" y="940" width="100" height="40" as="geometry" />
        </mxCell>
        <mxCell id="kg-7mxeYcSGcEFVd8-3E-222" value="개인정보" style="shape=rhombus;perimeter=rhombusPerimeter;whiteSpace=wrap;html=1;align=center;" parent="1" vertex="1">
          <mxGeometry x="320" y="1020" width="120" height="60" as="geometry" />
        </mxCell>
        <mxCell id="kg-7mxeYcSGcEFVd8-3E-224" value="" style="endArrow=none;html=1;rounded=0;entryX=0.5;entryY=1;entryDx=0;entryDy=0;exitX=0.5;exitY=0;exitDx=0;exitDy=0;" parent="1" source="kg-7mxeYcSGcEFVd8-3E-208" target="kg-7mxeYcSGcEFVd8-3E-222" edge="1">
          <mxGeometry width="50" height="50" relative="1" as="geometry">
            <mxPoint x="340" y="1120" as="sourcePoint" />
            <mxPoint x="390" y="1070" as="targetPoint" />
          </mxGeometry>
        </mxCell>
        <mxCell id="kg-7mxeYcSGcEFVd8-3E-225" value="" style="endArrow=none;html=1;rounded=0;entryX=0.5;entryY=1;entryDx=0;entryDy=0;exitX=0.5;exitY=0;exitDx=0;exitDy=0;" parent="1" source="kg-7mxeYcSGcEFVd8-3E-222" target="kg-7mxeYcSGcEFVd8-3E-221" edge="1">
          <mxGeometry width="50" height="50" relative="1" as="geometry">
            <mxPoint x="390" y="1130" as="sourcePoint" />
            <mxPoint x="390" y="1090" as="targetPoint" />
          </mxGeometry>
        </mxCell>
        <mxCell id="kg-7mxeYcSGcEFVd8-3E-226" value="1" style="text;html=1;align=center;verticalAlign=middle;resizable=0;points=[];autosize=1;strokeColor=none;fillColor=none;" parent="1" vertex="1">
          <mxGeometry x="353.75" y="1080" width="30" height="30" as="geometry" />
        </mxCell>
        <mxCell id="kg-7mxeYcSGcEFVd8-3E-227" value="1" style="text;html=1;align=center;verticalAlign=middle;resizable=0;points=[];autosize=1;strokeColor=none;fillColor=none;" parent="1" vertex="1">
          <mxGeometry x="350" y="1000" width="30" height="30" as="geometry" />
        </mxCell>
        <mxCell id="kg-7mxeYcSGcEFVd8-3E-230" value="이름" style="ellipse;whiteSpace=wrap;html=1;align=center;fontStyle=0" parent="1" vertex="1">
          <mxGeometry x="320" y="880" width="40" height="40" as="geometry" />
        </mxCell>
        <mxCell id="kg-7mxeYcSGcEFVd8-3E-231" value="나이" style="ellipse;whiteSpace=wrap;html=1;align=center;fontStyle=0" parent="1" vertex="1">
          <mxGeometry x="365" y="880" width="40" height="40" as="geometry" />
        </mxCell>
        <mxCell id="kg-7mxeYcSGcEFVd8-3E-232" value="주소" style="ellipse;whiteSpace=wrap;html=1;align=center;fontStyle=0" parent="1" vertex="1">
          <mxGeometry x="410" y="880" width="40" height="40" as="geometry" />
        </mxCell>
        <mxCell id="kg-7mxeYcSGcEFVd8-3E-233" value="성별" style="ellipse;whiteSpace=wrap;html=1;align=center;fontStyle=0" parent="1" vertex="1">
          <mxGeometry x="455" y="880" width="40" height="40" as="geometry" />
        </mxCell>
        <mxCell id="kg-7mxeYcSGcEFVd8-3E-234" value="경력&lt;div&gt;사항&lt;/div&gt;" style="ellipse;whiteSpace=wrap;html=1;align=center;fontStyle=0" parent="1" vertex="1">
          <mxGeometry x="500" y="880" width="40" height="40" as="geometry" />
        </mxCell>
        <mxCell id="kg-7mxeYcSGcEFVd8-3E-235" value="학력" style="ellipse;whiteSpace=wrap;html=1;align=center;fontStyle=0" parent="1" vertex="1">
          <mxGeometry x="540" y="880" width="40" height="40" as="geometry" />
        </mxCell>
        <mxCell id="kg-7mxeYcSGcEFVd8-3E-236" value="증명&lt;div&gt;사진&lt;/div&gt;" style="ellipse;whiteSpace=wrap;html=1;align=center;fontStyle=0" parent="1" vertex="1">
          <mxGeometry x="590" y="880" width="40" height="40" as="geometry" />
        </mxCell>
        <mxCell id="kg-7mxeYcSGcEFVd8-3E-237" value="프로필ID" style="ellipse;whiteSpace=wrap;html=1;align=center;fontStyle=0" parent="1" vertex="1">
          <mxGeometry x="231.25" y="880" width="40" height="40" as="geometry" />
        </mxCell>
        <mxCell id="kg-7mxeYcSGcEFVd8-3E-238" value="직원ID&lt;div&gt;(FK)&lt;/div&gt;" style="ellipse;whiteSpace=wrap;html=1;align=center;fontStyle=0" parent="1" vertex="1">
          <mxGeometry x="273.75" y="880" width="40" height="40" as="geometry" />
        </mxCell>
        <mxCell id="kg-7mxeYcSGcEFVd8-3E-239" value="월급" style="ellipse;whiteSpace=wrap;html=1;align=center;fontStyle=0" parent="1" vertex="1">
          <mxGeometry x="475" y="1170" width="40" height="40" as="geometry" />
        </mxCell>
        <mxCell id="kg-7mxeYcSGcEFVd8-3E-240" value="호봉" style="ellipse;whiteSpace=wrap;html=1;align=center;fontStyle=0" parent="1" vertex="1">
          <mxGeometry x="525" y="1170" width="35" height="40" as="geometry" />
        </mxCell>
        <mxCell id="kg-7mxeYcSGcEFVd8-3E-241" value="매장ID&lt;div&gt;(FK)&lt;/div&gt;" style="ellipse;whiteSpace=wrap;html=1;align=center;fontStyle=0" parent="1" vertex="1">
          <mxGeometry x="325" y="1170" width="40" height="40" as="geometry" />
        </mxCell>
        <mxCell id="kg-7mxeYcSGcEFVd8-3E-242" value="부서" style="whiteSpace=wrap;html=1;align=center;" parent="1" vertex="1">
          <mxGeometry x="661" y="1119" width="100" height="40" as="geometry" />
        </mxCell>
        <mxCell id="kg-7mxeYcSGcEFVd8-3E-243" value="부서명" style="ellipse;whiteSpace=wrap;html=1;align=center;fontStyle=0" parent="1" vertex="1">
          <mxGeometry x="670" y="1170" width="35" height="40" as="geometry" />
        </mxCell>
        <mxCell id="kg-7mxeYcSGcEFVd8-3E-244" value="인원" style="ellipse;whiteSpace=wrap;html=1;align=center;fontStyle=0" parent="1" vertex="1">
          <mxGeometry x="712.5" y="1170" width="35" height="40" as="geometry" />
        </mxCell>
        <mxCell id="kg-7mxeYcSGcEFVd8-3E-245" value="업무" style="ellipse;whiteSpace=wrap;html=1;align=center;fontStyle=0" parent="1" vertex="1">
          <mxGeometry x="750" y="1170" width="35" height="40" as="geometry" />
        </mxCell>
        <mxCell id="kg-7mxeYcSGcEFVd8-3E-246" value="부서ID" style="ellipse;whiteSpace=wrap;html=1;align=center;fontStyle=4" parent="1" vertex="1">
          <mxGeometry x="630" y="1170" width="35" height="40" as="geometry" />
        </mxCell>
        <mxCell id="kg-7mxeYcSGcEFVd8-3E-247" value="포함" style="shape=rhombus;perimeter=rhombusPerimeter;whiteSpace=wrap;html=1;align=center;" parent="1" vertex="1">
          <mxGeometry x="485" y="1110" width="120" height="60" as="geometry" />
        </mxCell>
        <mxCell id="kg-7mxeYcSGcEFVd8-3E-249" value="" style="edgeStyle=orthogonalEdgeStyle;rounded=0;orthogonalLoop=1;jettySize=auto;html=1;endArrow=none;endFill=0;" parent="1" edge="1">
          <mxGeometry relative="1" as="geometry">
            <mxPoint x="605" y="1139.71" as="sourcePoint" />
            <mxPoint x="660" y="1140" as="targetPoint" />
          </mxGeometry>
        </mxCell>
        <mxCell id="kg-7mxeYcSGcEFVd8-3E-250" value="" style="edgeStyle=orthogonalEdgeStyle;rounded=0;orthogonalLoop=1;jettySize=auto;html=1;endArrow=none;endFill=0;" parent="1" edge="1">
          <mxGeometry relative="1" as="geometry">
            <mxPoint x="430" y="1139.71" as="sourcePoint" />
            <mxPoint x="485" y="1139.71" as="targetPoint" />
          </mxGeometry>
        </mxCell>
        <mxCell id="kg-7mxeYcSGcEFVd8-3E-251" value="1" style="text;html=1;align=center;verticalAlign=middle;resizable=0;points=[];autosize=1;strokeColor=none;fillColor=none;" parent="1" vertex="1">
          <mxGeometry x="595" y="1108" width="30" height="30" as="geometry" />
        </mxCell>
        <mxCell id="kg-7mxeYcSGcEFVd8-3E-252" value="N" style="text;html=1;align=center;verticalAlign=middle;resizable=0;points=[];autosize=1;strokeColor=none;fillColor=none;" parent="1" vertex="1">
          <mxGeometry x="455" y="1110" width="30" height="30" as="geometry" />
        </mxCell>
        <mxCell id="kg-7mxeYcSGcEFVd8-3E-253" value="부서ID(FK)" style="ellipse;whiteSpace=wrap;html=1;align=center;fontStyle=0" parent="1" vertex="1">
          <mxGeometry x="370" y="1170" width="35" height="40" as="geometry" />
        </mxCell>
        <mxCell id="Cjz674rgcyXxBMaDM-vM-1" value="문제 1:1" style="text;html=1;align=center;verticalAlign=middle;resizable=0;points=[];autosize=1;strokeColor=none;fillColor=none;" parent="1" vertex="1">
          <mxGeometry y="1348" width="70" height="30" as="geometry" />
        </mxCell>
        <mxCell id="Cjz674rgcyXxBMaDM-vM-2" value="" style="rounded=0;whiteSpace=wrap;html=1;" parent="1" vertex="1">
          <mxGeometry x="15" y="1380" width="330" height="190" as="geometry" />
        </mxCell>
        <mxCell id="Cjz674rgcyXxBMaDM-vM-3" value="제품 - 제품상세정보" style="text;html=1;align=center;verticalAlign=middle;resizable=0;points=[];autosize=1;strokeColor=none;fillColor=none;" parent="1" vertex="1">
          <mxGeometry x="191.25" y="1920" width="130" height="30" as="geometry" />
        </mxCell>
        <mxCell id="Cjz674rgcyXxBMaDM-vM-4" value="직원기본정보 - 직원프로필" style="text;html=1;align=center;verticalAlign=middle;resizable=0;points=[];autosize=1;strokeColor=none;fillColor=none;" parent="1" vertex="1">
          <mxGeometry x="20" y="1430" width="170" height="30" as="geometry" />
        </mxCell>
        <mxCell id="Cjz674rgcyXxBMaDM-vM-5" value="사용자 - 이메일인증" style="text;html=1;align=center;verticalAlign=middle;resizable=0;points=[];autosize=1;strokeColor=none;fillColor=none;" parent="1" vertex="1">
          <mxGeometry x="195" y="1680" width="130" height="30" as="geometry" />
        </mxCell>
        <mxCell id="Cjz674rgcyXxBMaDM-vM-7" value="" style="rounded=0;whiteSpace=wrap;html=1;" parent="1" vertex="1">
          <mxGeometry x="395" y="1380" width="330" height="190" as="geometry" />
        </mxCell>
        <mxCell id="Cjz674rgcyXxBMaDM-vM-8" value="고객 - 신용카드" style="text;html=1;align=center;verticalAlign=middle;resizable=0;points=[];autosize=1;strokeColor=none;fillColor=none;" parent="1" vertex="1">
          <mxGeometry x="290" y="2190" width="110" height="30" as="geometry" />
        </mxCell>
        <mxCell id="Cjz674rgcyXxBMaDM-vM-9" value="문제 1:N" style="text;html=1;align=center;verticalAlign=middle;resizable=0;points=[];autosize=1;strokeColor=none;fillColor=none;" parent="1" vertex="1">
          <mxGeometry x="385" y="1348" width="70" height="30" as="geometry" />
        </mxCell>
        <mxCell id="Cjz674rgcyXxBMaDM-vM-10" value="학생 - 상담기록" style="text;html=1;align=center;verticalAlign=middle;resizable=0;points=[];autosize=1;strokeColor=none;fillColor=none;" parent="1" vertex="1">
          <mxGeometry x="20" y="1490" width="110" height="30" as="geometry" />
        </mxCell>
        <mxCell id="Cjz674rgcyXxBMaDM-vM-11" value="강사 - 학생" style="text;html=1;align=center;verticalAlign=middle;resizable=0;points=[];autosize=1;strokeColor=none;fillColor=none;" parent="1" vertex="1">
          <mxGeometry x="405" y="1420" width="80" height="30" as="geometry" />
        </mxCell>
        <mxCell id="Cjz674rgcyXxBMaDM-vM-12" value="광역시 - 구" style="text;html=1;align=center;verticalAlign=middle;resizable=0;points=[];autosize=1;strokeColor=none;fillColor=none;" parent="1" vertex="1">
          <mxGeometry x="405" y="1450" width="80" height="30" as="geometry" />
        </mxCell>
        <mxCell id="Wylana0_oOjm_mHA8hyx-2" value="사용자" style="whiteSpace=wrap;html=1;align=center;strokeColor=#457B9D;fontColor=#1D3557;fillColor=#A8DADC;" vertex="1" parent="1">
          <mxGeometry x="-20" y="1730" width="100" height="40" as="geometry" />
        </mxCell>
        <mxCell id="Wylana0_oOjm_mHA8hyx-3" value="이메일인증" style="whiteSpace=wrap;html=1;align=center;strokeColor=#457B9D;fontColor=#1D3557;fillColor=#A8DADC;" vertex="1" parent="1">
          <mxGeometry x="405" y="1730" width="100" height="40" as="geometry" />
        </mxCell>
        <mxCell id="Wylana0_oOjm_mHA8hyx-4" value="인증" style="shape=rhombus;perimeter=rhombusPerimeter;whiteSpace=wrap;html=1;align=center;strokeColor=#457B9D;fontColor=#1D3557;fillColor=#A8DADC;" vertex="1" parent="1">
          <mxGeometry x="198.75" y="1725" width="105" height="50" as="geometry" />
        </mxCell>
        <mxCell id="Wylana0_oOjm_mHA8hyx-5" value="이메일" style="ellipse;whiteSpace=wrap;html=1;align=center;strokeColor=#457B9D;fontColor=#1D3557;fillColor=#A8DADC;" vertex="1" parent="1">
          <mxGeometry x="-60" y="1790" width="40" height="40" as="geometry" />
        </mxCell>
        <mxCell id="Wylana0_oOjm_mHA8hyx-6" value="이름" style="ellipse;whiteSpace=wrap;html=1;align=center;strokeColor=#457B9D;fontColor=#1D3557;fillColor=#A8DADC;" vertex="1" parent="1">
          <mxGeometry x="-10" y="1790" width="40" height="40" as="geometry" />
        </mxCell>
        <mxCell id="Wylana0_oOjm_mHA8hyx-7" value="주소" style="ellipse;whiteSpace=wrap;html=1;align=center;strokeColor=#457B9D;fontColor=#1D3557;fillColor=#A8DADC;" vertex="1" parent="1">
          <mxGeometry x="40" y="1790" width="40" height="40" as="geometry" />
        </mxCell>
        <mxCell id="Wylana0_oOjm_mHA8hyx-8" value="전화번호" style="ellipse;whiteSpace=wrap;html=1;align=center;strokeColor=#457B9D;fontColor=#1D3557;fillColor=#A8DADC;" vertex="1" parent="1">
          <mxGeometry x="90" y="1790" width="40" height="40" as="geometry" />
        </mxCell>
        <mxCell id="Wylana0_oOjm_mHA8hyx-9" value="제품" style="whiteSpace=wrap;html=1;align=center;strokeColor=#457B9D;fontColor=#1D3557;fillColor=#A8DADC;" vertex="1" parent="1">
          <mxGeometry x="-25" y="1980" width="100" height="40" as="geometry" />
        </mxCell>
        <mxCell id="Wylana0_oOjm_mHA8hyx-10" value="제품상세정보" style="whiteSpace=wrap;html=1;align=center;strokeColor=#457B9D;fontColor=#1D3557;fillColor=#A8DADC;" vertex="1" parent="1">
          <mxGeometry x="405" y="1980" width="100" height="40" as="geometry" />
        </mxCell>
        <mxCell id="Wylana0_oOjm_mHA8hyx-22" style="edgeStyle=orthogonalEdgeStyle;rounded=0;orthogonalLoop=1;jettySize=auto;html=1;strokeColor=#457B9D;fontColor=#1D3557;fillColor=#A8DADC;entryX=0;entryY=0.5;entryDx=0;entryDy=0;" edge="1" parent="1" source="Wylana0_oOjm_mHA8hyx-11" target="Wylana0_oOjm_mHA8hyx-10">
          <mxGeometry relative="1" as="geometry" />
        </mxCell>
        <mxCell id="Wylana0_oOjm_mHA8hyx-11" value="설명" style="shape=rhombus;perimeter=rhombusPerimeter;whiteSpace=wrap;html=1;align=center;strokeColor=#457B9D;fontColor=#1D3557;fillColor=#A8DADC;" vertex="1" parent="1">
          <mxGeometry x="201.25" y="1975" width="110" height="50" as="geometry" />
        </mxCell>
        <mxCell id="Wylana0_oOjm_mHA8hyx-12" value="제품명" style="ellipse;whiteSpace=wrap;html=1;align=center;strokeColor=#457B9D;fontColor=#1D3557;fillColor=#A8DADC;" vertex="1" parent="1">
          <mxGeometry x="-35" y="2030" width="40" height="40" as="geometry" />
        </mxCell>
        <mxCell id="Wylana0_oOjm_mHA8hyx-13" value="가격" style="ellipse;whiteSpace=wrap;html=1;align=center;strokeColor=#457B9D;fontColor=#1D3557;fillColor=#A8DADC;" vertex="1" parent="1">
          <mxGeometry x="15" y="2030" width="40" height="40" as="geometry" />
        </mxCell>
        <mxCell id="Wylana0_oOjm_mHA8hyx-14" value="제조사" style="ellipse;whiteSpace=wrap;html=1;align=center;strokeColor=#457B9D;fontColor=#1D3557;fillColor=#A8DADC;" vertex="1" parent="1">
          <mxGeometry x="65" y="2030" width="40" height="40" as="geometry" />
        </mxCell>
        <mxCell id="Wylana0_oOjm_mHA8hyx-16" value="제품상세정보ID(PK)" style="ellipse;whiteSpace=wrap;html=1;align=center;strokeColor=#457B9D;fontColor=#1D3557;fillColor=#A8DADC;fontStyle=5" vertex="1" parent="1">
          <mxGeometry x="353.75" y="2030" width="40" height="40" as="geometry" />
        </mxCell>
        <mxCell id="Wylana0_oOjm_mHA8hyx-17" value="사용법" style="ellipse;whiteSpace=wrap;html=1;align=center;strokeColor=#457B9D;fontColor=#1D3557;fillColor=#A8DADC;" vertex="1" parent="1">
          <mxGeometry x="450" y="2030" width="40" height="40" as="geometry" />
        </mxCell>
        <mxCell id="Wylana0_oOjm_mHA8hyx-18" value="주의사항" style="ellipse;whiteSpace=wrap;html=1;align=center;strokeColor=#457B9D;fontColor=#1D3557;fillColor=#A8DADC;" vertex="1" parent="1">
          <mxGeometry x="500" y="2030" width="40" height="40" as="geometry" />
        </mxCell>
        <mxCell id="Wylana0_oOjm_mHA8hyx-19" value="제품 일련번호(pk)" style="ellipse;whiteSpace=wrap;html=1;align=center;strokeColor=#457B9D;fontColor=#1D3557;fillColor=#A8DADC;fontStyle=5" vertex="1" parent="1">
          <mxGeometry x="-80" y="2030" width="40" height="40" as="geometry" />
        </mxCell>
        <mxCell id="Wylana0_oOjm_mHA8hyx-20" value="제품 일련번호(FK)" style="ellipse;whiteSpace=wrap;html=1;align=center;strokeColor=#457B9D;fontColor=#1D3557;fillColor=#A8DADC;" vertex="1" parent="1">
          <mxGeometry x="400" y="2030" width="40" height="40" as="geometry" />
        </mxCell>
        <mxCell id="Wylana0_oOjm_mHA8hyx-21" style="edgeStyle=orthogonalEdgeStyle;rounded=0;orthogonalLoop=1;jettySize=auto;html=1;strokeColor=#457B9D;fontColor=#1D3557;fillColor=#A8DADC;entryX=0;entryY=0.5;entryDx=0;entryDy=0;" edge="1" parent="1" source="Wylana0_oOjm_mHA8hyx-9" target="Wylana0_oOjm_mHA8hyx-11">
          <mxGeometry relative="1" as="geometry">
            <mxPoint x="180" y="1999" as="targetPoint" />
          </mxGeometry>
        </mxCell>
        <mxCell id="Wylana0_oOjm_mHA8hyx-49" value="" style="edgeStyle=orthogonalEdgeStyle;rounded=0;orthogonalLoop=1;jettySize=auto;html=1;strokeColor=#457B9D;fontColor=#1D3557;fillColor=#A8DADC;" edge="1" parent="1" source="Wylana0_oOjm_mHA8hyx-23" target="Wylana0_oOjm_mHA8hyx-36">
          <mxGeometry relative="1" as="geometry" />
        </mxCell>
        <mxCell id="Wylana0_oOjm_mHA8hyx-23" value="제품" style="shape=table;startSize=30;container=1;collapsible=1;childLayout=tableLayout;fixedRows=1;rowLines=0;fontStyle=1;align=center;resizeLast=1;html=1;strokeColor=#457B9D;fontColor=#1D3557;fillColor=#A8DADC;" vertex="1" parent="1">
          <mxGeometry x="610" y="1960" width="180" height="150" as="geometry" />
        </mxCell>
        <mxCell id="Wylana0_oOjm_mHA8hyx-24" value="" style="shape=tableRow;horizontal=0;startSize=0;swimlaneHead=0;swimlaneBody=0;fillColor=none;collapsible=0;dropTarget=0;points=[[0,0.5],[1,0.5]];portConstraint=eastwest;top=0;left=0;right=0;bottom=1;strokeColor=#457B9D;fontColor=#1D3557;" vertex="1" parent="Wylana0_oOjm_mHA8hyx-23">
          <mxGeometry y="30" width="180" height="30" as="geometry" />
        </mxCell>
        <mxCell id="Wylana0_oOjm_mHA8hyx-25" value="PK" style="shape=partialRectangle;connectable=0;fillColor=none;top=0;left=0;bottom=0;right=0;fontStyle=1;overflow=hidden;whiteSpace=wrap;html=1;strokeColor=#457B9D;fontColor=#1D3557;" vertex="1" parent="Wylana0_oOjm_mHA8hyx-24">
          <mxGeometry width="30" height="30" as="geometry">
            <mxRectangle width="30" height="30" as="alternateBounds" />
          </mxGeometry>
        </mxCell>
        <mxCell id="Wylana0_oOjm_mHA8hyx-26" value="제품일련번호" style="shape=partialRectangle;connectable=0;fillColor=none;top=0;left=0;bottom=0;right=0;align=left;spacingLeft=6;fontStyle=5;overflow=hidden;whiteSpace=wrap;html=1;strokeColor=#457B9D;fontColor=#1D3557;" vertex="1" parent="Wylana0_oOjm_mHA8hyx-24">
          <mxGeometry x="30" width="150" height="30" as="geometry">
            <mxRectangle width="150" height="30" as="alternateBounds" />
          </mxGeometry>
        </mxCell>
        <mxCell id="Wylana0_oOjm_mHA8hyx-27" value="" style="shape=tableRow;horizontal=0;startSize=0;swimlaneHead=0;swimlaneBody=0;fillColor=none;collapsible=0;dropTarget=0;points=[[0,0.5],[1,0.5]];portConstraint=eastwest;top=0;left=0;right=0;bottom=0;strokeColor=#457B9D;fontColor=#1D3557;" vertex="1" parent="Wylana0_oOjm_mHA8hyx-23">
          <mxGeometry y="60" width="180" height="30" as="geometry" />
        </mxCell>
        <mxCell id="Wylana0_oOjm_mHA8hyx-28" value="" style="shape=partialRectangle;connectable=0;fillColor=none;top=0;left=0;bottom=0;right=0;editable=1;overflow=hidden;whiteSpace=wrap;html=1;strokeColor=#457B9D;fontColor=#1D3557;" vertex="1" parent="Wylana0_oOjm_mHA8hyx-27">
          <mxGeometry width="30" height="30" as="geometry">
            <mxRectangle width="30" height="30" as="alternateBounds" />
          </mxGeometry>
        </mxCell>
        <mxCell id="Wylana0_oOjm_mHA8hyx-29" value="Row 1" style="shape=partialRectangle;connectable=0;fillColor=none;top=0;left=0;bottom=0;right=0;align=left;spacingLeft=6;overflow=hidden;whiteSpace=wrap;html=1;strokeColor=#457B9D;fontColor=#1D3557;" vertex="1" parent="Wylana0_oOjm_mHA8hyx-27">
          <mxGeometry x="30" width="150" height="30" as="geometry">
            <mxRectangle width="150" height="30" as="alternateBounds" />
          </mxGeometry>
        </mxCell>
        <mxCell id="Wylana0_oOjm_mHA8hyx-30" value="" style="shape=tableRow;horizontal=0;startSize=0;swimlaneHead=0;swimlaneBody=0;fillColor=none;collapsible=0;dropTarget=0;points=[[0,0.5],[1,0.5]];portConstraint=eastwest;top=0;left=0;right=0;bottom=0;strokeColor=#457B9D;fontColor=#1D3557;" vertex="1" parent="Wylana0_oOjm_mHA8hyx-23">
          <mxGeometry y="90" width="180" height="30" as="geometry" />
        </mxCell>
        <mxCell id="Wylana0_oOjm_mHA8hyx-31" value="" style="shape=partialRectangle;connectable=0;fillColor=none;top=0;left=0;bottom=0;right=0;editable=1;overflow=hidden;whiteSpace=wrap;html=1;strokeColor=#457B9D;fontColor=#1D3557;" vertex="1" parent="Wylana0_oOjm_mHA8hyx-30">
          <mxGeometry width="30" height="30" as="geometry">
            <mxRectangle width="30" height="30" as="alternateBounds" />
          </mxGeometry>
        </mxCell>
        <mxCell id="Wylana0_oOjm_mHA8hyx-32" value="Row 2" style="shape=partialRectangle;connectable=0;fillColor=none;top=0;left=0;bottom=0;right=0;align=left;spacingLeft=6;overflow=hidden;whiteSpace=wrap;html=1;strokeColor=#457B9D;fontColor=#1D3557;" vertex="1" parent="Wylana0_oOjm_mHA8hyx-30">
          <mxGeometry x="30" width="150" height="30" as="geometry">
            <mxRectangle width="150" height="30" as="alternateBounds" />
          </mxGeometry>
        </mxCell>
        <mxCell id="Wylana0_oOjm_mHA8hyx-33" value="" style="shape=tableRow;horizontal=0;startSize=0;swimlaneHead=0;swimlaneBody=0;fillColor=none;collapsible=0;dropTarget=0;points=[[0,0.5],[1,0.5]];portConstraint=eastwest;top=0;left=0;right=0;bottom=0;strokeColor=#457B9D;fontColor=#1D3557;" vertex="1" parent="Wylana0_oOjm_mHA8hyx-23">
          <mxGeometry y="120" width="180" height="30" as="geometry" />
        </mxCell>
        <mxCell id="Wylana0_oOjm_mHA8hyx-34" value="" style="shape=partialRectangle;connectable=0;fillColor=none;top=0;left=0;bottom=0;right=0;editable=1;overflow=hidden;whiteSpace=wrap;html=1;strokeColor=#457B9D;fontColor=#1D3557;" vertex="1" parent="Wylana0_oOjm_mHA8hyx-33">
          <mxGeometry width="30" height="30" as="geometry">
            <mxRectangle width="30" height="30" as="alternateBounds" />
          </mxGeometry>
        </mxCell>
        <mxCell id="Wylana0_oOjm_mHA8hyx-35" value="Row 3" style="shape=partialRectangle;connectable=0;fillColor=none;top=0;left=0;bottom=0;right=0;align=left;spacingLeft=6;overflow=hidden;whiteSpace=wrap;html=1;strokeColor=#457B9D;fontColor=#1D3557;" vertex="1" parent="Wylana0_oOjm_mHA8hyx-33">
          <mxGeometry x="30" width="150" height="30" as="geometry">
            <mxRectangle width="150" height="30" as="alternateBounds" />
          </mxGeometry>
        </mxCell>
        <mxCell id="Wylana0_oOjm_mHA8hyx-36" value="제품상세정보" style="shape=table;startSize=30;container=1;collapsible=1;childLayout=tableLayout;fixedRows=1;rowLines=0;fontStyle=1;align=center;resizeLast=1;html=1;strokeColor=#457B9D;fontColor=#1D3557;fillColor=#A8DADC;" vertex="1" parent="1">
          <mxGeometry x="870" y="1960" width="180" height="150" as="geometry" />
        </mxCell>
        <mxCell id="Wylana0_oOjm_mHA8hyx-37" value="" style="shape=tableRow;horizontal=0;startSize=0;swimlaneHead=0;swimlaneBody=0;fillColor=none;collapsible=0;dropTarget=0;points=[[0,0.5],[1,0.5]];portConstraint=eastwest;top=0;left=0;right=0;bottom=1;strokeColor=#457B9D;fontColor=#1D3557;" vertex="1" parent="Wylana0_oOjm_mHA8hyx-36">
          <mxGeometry y="30" width="180" height="30" as="geometry" />
        </mxCell>
        <mxCell id="Wylana0_oOjm_mHA8hyx-38" value="PK" style="shape=partialRectangle;connectable=0;fillColor=none;top=0;left=0;bottom=0;right=0;fontStyle=1;overflow=hidden;whiteSpace=wrap;html=1;strokeColor=#457B9D;fontColor=#1D3557;" vertex="1" parent="Wylana0_oOjm_mHA8hyx-37">
          <mxGeometry width="30" height="30" as="geometry">
            <mxRectangle width="30" height="30" as="alternateBounds" />
          </mxGeometry>
        </mxCell>
        <mxCell id="Wylana0_oOjm_mHA8hyx-39" value="제품상세정보ID" style="shape=partialRectangle;connectable=0;fillColor=none;top=0;left=0;bottom=0;right=0;align=left;spacingLeft=6;fontStyle=5;overflow=hidden;whiteSpace=wrap;html=1;strokeColor=#457B9D;fontColor=#1D3557;" vertex="1" parent="Wylana0_oOjm_mHA8hyx-37">
          <mxGeometry x="30" width="150" height="30" as="geometry">
            <mxRectangle width="150" height="30" as="alternateBounds" />
          </mxGeometry>
        </mxCell>
        <mxCell id="Wylana0_oOjm_mHA8hyx-40" value="" style="shape=tableRow;horizontal=0;startSize=0;swimlaneHead=0;swimlaneBody=0;fillColor=none;collapsible=0;dropTarget=0;points=[[0,0.5],[1,0.5]];portConstraint=eastwest;top=0;left=0;right=0;bottom=0;strokeColor=#457B9D;fontColor=#1D3557;" vertex="1" parent="Wylana0_oOjm_mHA8hyx-36">
          <mxGeometry y="60" width="180" height="30" as="geometry" />
        </mxCell>
        <mxCell id="Wylana0_oOjm_mHA8hyx-41" value="FK" style="shape=partialRectangle;connectable=0;fillColor=none;top=0;left=0;bottom=0;right=0;editable=1;overflow=hidden;whiteSpace=wrap;html=1;strokeColor=#457B9D;fontColor=#1D3557;" vertex="1" parent="Wylana0_oOjm_mHA8hyx-40">
          <mxGeometry width="30" height="30" as="geometry">
            <mxRectangle width="30" height="30" as="alternateBounds" />
          </mxGeometry>
        </mxCell>
        <mxCell id="Wylana0_oOjm_mHA8hyx-42" value="제품일련번호" style="shape=partialRectangle;connectable=0;fillColor=none;top=0;left=0;bottom=0;right=0;align=left;spacingLeft=6;overflow=hidden;whiteSpace=wrap;html=1;strokeColor=#457B9D;fontColor=#1D3557;" vertex="1" parent="Wylana0_oOjm_mHA8hyx-40">
          <mxGeometry x="30" width="150" height="30" as="geometry">
            <mxRectangle width="150" height="30" as="alternateBounds" />
          </mxGeometry>
        </mxCell>
        <mxCell id="Wylana0_oOjm_mHA8hyx-43" value="" style="shape=tableRow;horizontal=0;startSize=0;swimlaneHead=0;swimlaneBody=0;fillColor=none;collapsible=0;dropTarget=0;points=[[0,0.5],[1,0.5]];portConstraint=eastwest;top=0;left=0;right=0;bottom=0;strokeColor=#457B9D;fontColor=#1D3557;" vertex="1" parent="Wylana0_oOjm_mHA8hyx-36">
          <mxGeometry y="90" width="180" height="30" as="geometry" />
        </mxCell>
        <mxCell id="Wylana0_oOjm_mHA8hyx-44" value="" style="shape=partialRectangle;connectable=0;fillColor=none;top=0;left=0;bottom=0;right=0;editable=1;overflow=hidden;whiteSpace=wrap;html=1;strokeColor=#457B9D;fontColor=#1D3557;" vertex="1" parent="Wylana0_oOjm_mHA8hyx-43">
          <mxGeometry width="30" height="30" as="geometry">
            <mxRectangle width="30" height="30" as="alternateBounds" />
          </mxGeometry>
        </mxCell>
        <mxCell id="Wylana0_oOjm_mHA8hyx-45" value="Row 2" style="shape=partialRectangle;connectable=0;fillColor=none;top=0;left=0;bottom=0;right=0;align=left;spacingLeft=6;overflow=hidden;whiteSpace=wrap;html=1;strokeColor=#457B9D;fontColor=#1D3557;" vertex="1" parent="Wylana0_oOjm_mHA8hyx-43">
          <mxGeometry x="30" width="150" height="30" as="geometry">
            <mxRectangle width="150" height="30" as="alternateBounds" />
          </mxGeometry>
        </mxCell>
        <mxCell id="Wylana0_oOjm_mHA8hyx-46" value="" style="shape=tableRow;horizontal=0;startSize=0;swimlaneHead=0;swimlaneBody=0;fillColor=none;collapsible=0;dropTarget=0;points=[[0,0.5],[1,0.5]];portConstraint=eastwest;top=0;left=0;right=0;bottom=0;strokeColor=#457B9D;fontColor=#1D3557;" vertex="1" parent="Wylana0_oOjm_mHA8hyx-36">
          <mxGeometry y="120" width="180" height="30" as="geometry" />
        </mxCell>
        <mxCell id="Wylana0_oOjm_mHA8hyx-47" value="" style="shape=partialRectangle;connectable=0;fillColor=none;top=0;left=0;bottom=0;right=0;editable=1;overflow=hidden;whiteSpace=wrap;html=1;strokeColor=#457B9D;fontColor=#1D3557;" vertex="1" parent="Wylana0_oOjm_mHA8hyx-46">
          <mxGeometry width="30" height="30" as="geometry">
            <mxRectangle width="30" height="30" as="alternateBounds" />
          </mxGeometry>
        </mxCell>
        <mxCell id="Wylana0_oOjm_mHA8hyx-48" value="Row 3" style="shape=partialRectangle;connectable=0;fillColor=none;top=0;left=0;bottom=0;right=0;align=left;spacingLeft=6;overflow=hidden;whiteSpace=wrap;html=1;strokeColor=#457B9D;fontColor=#1D3557;" vertex="1" parent="Wylana0_oOjm_mHA8hyx-46">
          <mxGeometry x="30" width="150" height="30" as="geometry">
            <mxRectangle width="150" height="30" as="alternateBounds" />
          </mxGeometry>
        </mxCell>
        <mxCell id="Wylana0_oOjm_mHA8hyx-53" style="edgeStyle=orthogonalEdgeStyle;rounded=0;orthogonalLoop=1;jettySize=auto;html=1;entryX=0;entryY=0.5;entryDx=0;entryDy=0;strokeColor=#457B9D;fontColor=#1D3557;fillColor=#A8DADC;" edge="1" parent="1" source="Wylana0_oOjm_mHA8hyx-50" target="Wylana0_oOjm_mHA8hyx-52">
          <mxGeometry relative="1" as="geometry" />
        </mxCell>
        <mxCell id="Wylana0_oOjm_mHA8hyx-50" value="고객" style="whiteSpace=wrap;html=1;align=center;strokeColor=#457B9D;fontColor=#1D3557;fillColor=#A8DADC;" vertex="1" parent="1">
          <mxGeometry x="35" y="2270" width="100" height="40" as="geometry" />
        </mxCell>
        <mxCell id="Wylana0_oOjm_mHA8hyx-51" value="신용카드" style="whiteSpace=wrap;html=1;align=center;strokeColor=#457B9D;fontColor=#1D3557;fillColor=#A8DADC;" vertex="1" parent="1">
          <mxGeometry x="525" y="2270" width="100" height="40" as="geometry" />
        </mxCell>
        <mxCell id="Wylana0_oOjm_mHA8hyx-54" style="edgeStyle=orthogonalEdgeStyle;rounded=0;orthogonalLoop=1;jettySize=auto;html=1;entryX=0;entryY=0.5;entryDx=0;entryDy=0;strokeColor=#457B9D;fontColor=#1D3557;fillColor=#A8DADC;" edge="1" parent="1" source="Wylana0_oOjm_mHA8hyx-52" target="Wylana0_oOjm_mHA8hyx-51">
          <mxGeometry relative="1" as="geometry" />
        </mxCell>
        <mxCell id="Wylana0_oOjm_mHA8hyx-52" value="Relationship" style="shape=rhombus;perimeter=rhombusPerimeter;whiteSpace=wrap;html=1;align=center;strokeColor=#457B9D;fontColor=#1D3557;fillColor=#A8DADC;" vertex="1" parent="1">
          <mxGeometry x="280" y="2265" width="100" height="50" as="geometry" />
        </mxCell>
      </root>
    </mxGraphModel>
  </diagram>
</mxfile>
